<svg width="29" height="26" viewBox="0 0 29 26" fill="none" xmlns="http://www.w3.org/2000/svg">
<path fill-rule="evenodd" clip-rule="evenodd" d="M5.89981 3.02178C3.66209 4.03421 2.02326 6.44374 2.02326 9.31674C2.02326 12.2512 3.23721 14.5138 4.97451 16.4532C6.40833 18.0506 8.14293 19.3756 9.83437 20.6658C10.2363 20.973 10.6356 21.2789 11.0281 21.5847C11.7376 22.139 12.3702 22.6239 12.9812 22.9778C13.5909 23.3305 14.0819 23.4921 14.5 23.4921C14.9181 23.4921 15.4091 23.3318 16.0188 22.9778C16.6298 22.6239 17.2624 22.139 17.9719 21.5847C18.3631 21.2775 18.7637 20.973 19.1656 20.6672C20.8571 19.3742 22.5917 18.0506 24.0255 16.4532C25.7641 14.5138 26.9767 12.2512 26.9767 9.31674C26.9767 6.44507 25.3379 4.03421 23.1002 3.02178C20.9259 2.0374 18.0043 2.29786 15.2284 5.15483C15.134 5.25178 15.0209 5.3289 14.8957 5.38157C14.7706 5.43424 14.636 5.46139 14.5 5.46139C14.364 5.46139 14.2294 5.43424 14.1043 5.38157C13.9791 5.3289 13.866 5.25178 13.7716 5.15483C10.9957 2.29786 8.07414 2.0374 5.89981 3.02178ZM14.5 3.06987C11.3815 0.305057 7.88935 -0.0822838 5.05814 1.19861C2.07181 2.5543 0 5.69577 0 9.31807C0 12.8776 1.49721 15.5943 3.46247 17.7848C5.03521 19.5385 6.96 21.0064 8.66088 22.302C9.04665 22.5958 9.42028 22.8817 9.77502 23.1595C10.467 23.6991 11.2088 24.2734 11.9601 24.7088C12.7114 25.1429 13.5693 25.4969 14.5 25.4969C15.4307 25.4969 16.2886 25.1429 17.0399 24.7088C17.7925 24.2734 18.533 23.6991 19.225 23.1595C19.5944 22.8712 19.9658 22.5854 20.3391 22.302C22.0387 21.0064 23.9648 19.5372 25.5375 17.7848C27.5028 15.5943 29 12.8776 29 9.31807C29 5.69577 26.9295 2.5543 23.9419 1.20128C21.1107 -0.080948 17.6185 0.306392 14.5 3.06987Z" fill="black"/>
<path d="M2.70601 3.94172C8.89058 -0.957594 12.8848 2.41057 14.3021 4.70712C18.3221 0.11403 22.4193 1.26228 23.9654 2.41054C30.7684 6.08503 27.5731 13.383 25.125 16.5726L21.2597 20.4003L16.2347 23.845C14.3793 25.3761 10.179 22.6969 8.50404 21.1659L5.79827 18.8692C-0.695534 12.4388 1.15986 6.23826 2.70601 3.94172Z" fill="#FF0000" stroke="black"/>
</svg>
