<svg width="1920" height="29" viewBox="0 0 1920 29" fill="none" xmlns="http://www.w3.org/2000/svg">
<g filter="url(#filter0_d_1117_6358)">
<path d="M3 2H15M576 2H566.25M15 2V19M15 2H28M28 2V19M28 2H42.5M42.5 2V19M42.5 2H57M57 2V19M57 2H71M71 2V19M71 2H84.5M84.5 2V19M84.5 2H98.5M98.5 2V19M98.5 2H111.5M111.5 2V19M111.5 2H126M126 2V17.5M126 2H139.5M139.5 2V19M139.5 2H153M153 2V19M153 2H166.5M166.5 2V19M166.5 2H181M181 2V19M181 2H195M195 2V19M195 2H210M210 2V19M210 2H223.5M223.5 2V19M223.5 2H238.5M238.5 2V19M238.5 2H250.5M250.5 2V19M250.5 2H263M263 2V19M263 2H278.5M278.5 2V19M278.5 2H292M292 2V19M292 2H306M306 2V19M306 2H322M322 2V19M322 2H335M335 2V19M335 2H348.5M348.5 2V19M348.5 2H361.5M361.5 2V19M361.5 2H376M376 2V19M376 2H391M391 2V19M391 2H403.5M403.5 2V19M403.5 2H417.5M417.5 2V19M417.5 2H431.5M431.5 2V19M431.5 2H445M445 2V19M445 2H460.5M460.5 2V19M460.5 2H473M473 2V19M473 2H488.5M488.5 2V19M488.5 2H499M499 2V19M499 2H513.5M513.5 2V19M513.5 2H529.5M529.5 2V19M529.5 2H542.5M542.5 2V19M542.5 2H556.5M556.5 2V19M556.5 2H566.25M566.25 2V19" stroke="#A05501" stroke-width="3"/>
<path d="M0 19H579" stroke="#A05501" stroke-width="3"/>
</g>
<g filter="url(#filter1_d_1117_6358)">
<path d="M567 2H579M1140 2H1130.25M579 2V19M579 2H592M592 2V19M592 2H606.5M606.5 2V19M606.5 2H621M621 2V19M621 2H635M635 2V19M635 2H648.5M648.5 2V19M648.5 2H662.5M662.5 2V19M662.5 2H675.5M675.5 2V19M675.5 2H690M690 2V17.5M690 2H703.5M703.5 2V19M703.5 2H717M717 2V19M717 2H730.5M730.5 2V19M730.5 2H745M745 2V19M745 2H759M759 2V19M759 2H774M774 2V19M774 2H787.5M787.5 2V19M787.5 2H802.5M802.5 2V19M802.5 2H814.5M814.5 2V19M814.5 2H827M827 2V19M827 2H842.5M842.5 2V19M842.5 2H856M856 2V19M856 2H870M870 2V19M870 2H886M886 2V19M886 2H899M899 2V19M899 2H912.5M912.5 2V19M912.5 2H925.5M925.5 2V19M925.5 2H940M940 2V19M940 2H955M955 2V19M955 2H967.5M967.5 2V19M967.5 2H981.5M981.5 2V19M981.5 2H995.5M995.5 2V19M995.5 2H1009M1009 2V19M1009 2H1024.5M1024.5 2V19M1024.5 2H1037M1037 2V19M1037 2H1052.5M1052.5 2V19M1052.5 2H1063M1063 2V19M1063 2H1077.5M1077.5 2V19M1077.5 2H1093.5M1093.5 2V19M1093.5 2H1106.5M1106.5 2V19M1106.5 2H1120.5M1120.5 2V19M1120.5 2H1130.25M1130.25 2V19" stroke="#A05501" stroke-width="3"/>
<path d="M564 19H1143" stroke="#A05501" stroke-width="3"/>
</g>
<g filter="url(#filter2_d_1117_6358)">
<path d="M1131 2H1143M1704 2H1694.25M1143 2V19M1143 2H1156M1156 2V19M1156 2H1170.5M1170.5 2V19M1170.5 2H1185M1185 2V19M1185 2H1199M1199 2V19M1199 2H1212.5M1212.5 2V19M1212.5 2H1226.5M1226.5 2V19M1226.5 2H1239.5M1239.5 2V19M1239.5 2H1254M1254 2V17.5M1254 2H1267.5M1267.5 2V19M1267.5 2H1281M1281 2V19M1281 2H1294.5M1294.5 2V19M1294.5 2H1309M1309 2V19M1309 2H1323M1323 2V19M1323 2H1338M1338 2V19M1338 2H1351.5M1351.5 2V19M1351.5 2H1366.5M1366.5 2V19M1366.5 2H1378.5M1378.5 2V19M1378.5 2H1391M1391 2V19M1391 2H1406.5M1406.5 2V19M1406.5 2H1420M1420 2V19M1420 2H1434M1434 2V19M1434 2H1450M1450 2V19M1450 2H1463M1463 2V19M1463 2H1476.5M1476.5 2V19M1476.5 2H1489.5M1489.5 2V19M1489.5 2H1504M1504 2V19M1504 2H1519M1519 2V19M1519 2H1531.5M1531.5 2V19M1531.5 2H1545.5M1545.5 2V19M1545.5 2H1559.5M1559.5 2V19M1559.5 2H1573M1573 2V19M1573 2H1588.5M1588.5 2V19M1588.5 2H1601M1601 2V19M1601 2H1616.5M1616.5 2V19M1616.5 2H1627M1627 2V19M1627 2H1641.5M1641.5 2V19M1641.5 2H1657.5M1657.5 2V19M1657.5 2H1670.5M1670.5 2V19M1670.5 2H1684.5M1684.5 2V19M1684.5 2H1694.25M1694.25 2V19" stroke="#A05501" stroke-width="3"/>
<path d="M1128 19H1707" stroke="#A05501" stroke-width="3"/>
</g>
<g filter="url(#filter3_d_1117_6358)">
<path d="M1699 2H1713.5M1713.5 2V19M1713.5 2H1727.5M1727.5 2V19M1727.5 2H1741M1741 2V19M1741 2H1755M1755 2V19M1755 2H1768M1768 2V19M1768 2H1782.5M1782.5 2V17.5M1782.5 2H1796M1796 2V19M1796 2H1809.5M1809.5 2V19M1809.5 2H1823M1823 2V19M1823 2H1837.5M1837.5 2V19M1837.5 2H1851.5M1851.5 2V19M1851.5 2H1866.5M1866.5 2V19M1866.5 2H1880M1880 2V19M1880 2H1895M1895 2V19M1895 2H1907M1907 2V19M1907 2H1919.5" stroke="#A05501" stroke-width="3"/>
<path d="M1699.5 19H1919.5" stroke="#A05501" stroke-width="3"/>
</g>
<defs>
<filter id="filter0_d_1117_6358" x="-4" y="0.5" width="587" height="28" filterUnits="userSpaceOnUse" color-interpolation-filters="sRGB">
<feFlood flood-opacity="0" result="BackgroundImageFix"/>
<feColorMatrix in="SourceAlpha" type="matrix" values="0 0 0 0 0 0 0 0 0 0 0 0 0 0 0 0 0 0 127 0" result="hardAlpha"/>
<feOffset dy="4"/>
<feGaussianBlur stdDeviation="2"/>
<feComposite in2="hardAlpha" operator="out"/>
<feColorMatrix type="matrix" values="0 0 0 0 0 0 0 0 0 0 0 0 0 0 0 0 0 0 0.25 0"/>
<feBlend mode="normal" in2="BackgroundImageFix" result="effect1_dropShadow_1117_6358"/>
<feBlend mode="normal" in="SourceGraphic" in2="effect1_dropShadow_1117_6358" result="shape"/>
</filter>
<filter id="filter1_d_1117_6358" x="560" y="0.5" width="587" height="28" filterUnits="userSpaceOnUse" color-interpolation-filters="sRGB">
<feFlood flood-opacity="0" result="BackgroundImageFix"/>
<feColorMatrix in="SourceAlpha" type="matrix" values="0 0 0 0 0 0 0 0 0 0 0 0 0 0 0 0 0 0 127 0" result="hardAlpha"/>
<feOffset dy="4"/>
<feGaussianBlur stdDeviation="2"/>
<feComposite in2="hardAlpha" operator="out"/>
<feColorMatrix type="matrix" values="0 0 0 0 0 0 0 0 0 0 0 0 0 0 0 0 0 0 0.25 0"/>
<feBlend mode="normal" in2="BackgroundImageFix" result="effect1_dropShadow_1117_6358"/>
<feBlend mode="normal" in="SourceGraphic" in2="effect1_dropShadow_1117_6358" result="shape"/>
</filter>
<filter id="filter2_d_1117_6358" x="1124" y="0.5" width="587" height="28" filterUnits="userSpaceOnUse" color-interpolation-filters="sRGB">
<feFlood flood-opacity="0" result="BackgroundImageFix"/>
<feColorMatrix in="SourceAlpha" type="matrix" values="0 0 0 0 0 0 0 0 0 0 0 0 0 0 0 0 0 0 127 0" result="hardAlpha"/>
<feOffset dy="4"/>
<feGaussianBlur stdDeviation="2"/>
<feComposite in2="hardAlpha" operator="out"/>
<feColorMatrix type="matrix" values="0 0 0 0 0 0 0 0 0 0 0 0 0 0 0 0 0 0 0.25 0"/>
<feBlend mode="normal" in2="BackgroundImageFix" result="effect1_dropShadow_1117_6358"/>
<feBlend mode="normal" in="SourceGraphic" in2="effect1_dropShadow_1117_6358" result="shape"/>
</filter>
<filter id="filter3_d_1117_6358" x="1695" y="0.5" width="228.5" height="28" filterUnits="userSpaceOnUse" color-interpolation-filters="sRGB">
<feFlood flood-opacity="0" result="BackgroundImageFix"/>
<feColorMatrix in="SourceAlpha" type="matrix" values="0 0 0 0 0 0 0 0 0 0 0 0 0 0 0 0 0 0 127 0" result="hardAlpha"/>
<feOffset dy="4"/>
<feGaussianBlur stdDeviation="2"/>
<feComposite in2="hardAlpha" operator="out"/>
<feColorMatrix type="matrix" values="0 0 0 0 0 0 0 0 0 0 0 0 0 0 0 0 0 0 0.25 0"/>
<feBlend mode="normal" in2="BackgroundImageFix" result="effect1_dropShadow_1117_6358"/>
<feBlend mode="normal" in="SourceGraphic" in2="effect1_dropShadow_1117_6358" result="shape"/>
</filter>
</defs>
</svg>
