<svg width="265" height="223" viewBox="0 0 265 223" fill="none" xmlns="http://www.w3.org/2000/svg">
<path d="M98.7097 10.2991C93.2097 13.9991 92.5097 16.6991 91.6097 35.4991C90.1097 68.9991 88.8097 86.5991 87.5097 91.4991C84.2097 103.399 76.1097 113.999 68.6097 116.099C58.7097 118.699 50.5097 113.199 42.8097 98.8991C40.4097 94.4991 36.7097 89.0991 34.5097 86.9991C24.8097 77.1991 10.2097 78.1991 8.20966 88.7991C7.30966 93.6991 9.20966 99.0991 15.8097 110.499C19.0097 115.999 26.6097 130.199 32.8097 141.999C38.9097 153.799 46.1097 166.999 48.6097 171.399C72.4097 211.599 116.71 226.099 160.61 208.199C171.11 203.899 177.41 199.799 187.21 190.899C197.41 181.599 203.01 178.599 221.51 172.399C238.81 166.599 247.71 161.999 252.81 156.199C257.51 150.899 258.61 146.499 256.31 142.099C253.01 135.699 246.01 135.399 235.11 141.099C216.91 150.799 212.81 152.699 207.51 153.899C200.51 155.399 195.31 154.199 191.31 149.899C188.71 147.299 188.31 146.099 188.41 141.199C188.41 136.799 189.01 134.499 191.11 131.299C195.21 124.799 205.11 114.699 218.91 102.899C233.71 90.2991 236.91 85.5991 234.91 78.9991C233.01 72.7991 226.31 69.6991 219.11 71.9991C216.21 72.8991 210.91 77.6991 196.31 92.4991C185.91 103.099 175.71 112.499 173.81 113.499C163.21 118.899 151.61 110.899 153.21 99.0991C154.31 91.1991 156.91 86.9991 174.51 64.3991C185.41 50.4991 188.71 44.5991 188.81 39.1991C188.81 31.2991 182.71 24.9991 174.91 24.9991C167.51 24.9991 166.61 26.2991 152.81 54.4991C137.61 85.5991 133.71 90.8991 125.21 91.6991C120.61 92.1991 119.81 91.8991 116.51 88.9991C109.81 83.0991 109.31 73.6991 114.31 45.9991C118.01 25.6991 118.51 17.6991 116.41 14.4991C114.11 10.9991 109.01 7.99911 105.21 7.99911C103.51 7.99911 100.61 8.99911 98.7097 10.2991ZM148.81 143.399C148.81 146.399 149.01 146.699 151.31 146.199C155.81 145.399 157.81 148.299 157.81 155.699C157.81 161.799 157.71 161.999 155.31 161.999C152.91 161.999 152.81 161.699 152.81 156.699C152.81 150.899 152.41 149.899 150.21 150.699C149.21 150.999 148.81 152.899 148.81 156.599C148.81 161.699 148.71 161.999 146.31 161.999H143.81V150.999V139.999H146.31C148.51 139.999 148.81 140.399 148.81 143.399ZM167.81 147.499C167.81 154.199 167.61 154.999 165.91 154.999C163.71 154.999 162.81 152.399 162.81 145.199C162.81 140.299 162.91 139.999 165.31 139.999C167.71 139.999 167.81 140.199 167.81 147.499ZM81.8097 143.999C81.8097 145.299 82.5097 145.999 83.8097 145.999C85.1097 145.999 85.8097 146.699 85.8097 147.999C85.8097 149.299 85.1097 149.999 83.8097 149.999C82.1097 149.999 81.8097 150.699 81.8097 153.899C81.8097 156.899 82.2097 157.899 83.8097 158.299C84.9097 158.599 85.8097 159.499 85.8097 160.299C85.8097 162.699 82.0097 163.399 79.3097 161.599C77.2097 160.199 76.8097 159.199 76.8097 154.999C76.8097 152.199 76.4097 149.999 75.8097 149.999C75.3097 149.999 74.8097 149.299 74.8097 148.499C74.8097 147.699 75.3097 146.999 75.8097 146.999C76.4097 146.999 77.3097 145.899 77.8097 144.499C78.9097 141.499 81.8097 141.199 81.8097 143.999ZM100.11 147.099C105.01 149.299 106.11 155.399 102.41 159.599C100.61 161.699 99.2097 162.399 96.4097 162.399C88.8097 162.399 85.4097 153.399 91.2097 148.399C94.2097 145.799 96.5097 145.399 100.11 147.099ZM113.81 151.999C113.81 157.299 114.01 157.999 115.81 157.999C117.61 157.999 117.81 157.299 117.81 151.999C117.81 146.299 117.91 145.999 120.31 145.999C122.81 145.999 122.81 146.099 122.81 153.899V161.699L118.11 162.299C110.41 163.199 108.81 161.499 108.81 152.999C108.81 146.199 108.91 145.999 111.31 145.999C113.71 145.999 113.81 146.299 113.81 151.999ZM138.81 146.999C141.81 148.599 140.21 151.299 136.71 150.599C133.41 149.999 131.21 152.699 132.31 156.099C132.91 157.799 133.61 158.099 135.81 157.599C139.41 156.899 141.61 159.099 139.21 161.099C136.61 163.299 130.81 162.699 128.71 160.099C122.91 152.999 130.91 142.799 138.81 146.999ZM168.21 158.699C169.11 160.799 166.61 163.299 164.51 162.399C162.81 161.799 162.21 158.899 163.51 157.699C164.71 156.399 167.61 156.999 168.21 158.699Z" fill="#FFF2D0"/>
<path d="M94.9105 151C94.2105 151.4 93.8105 153 94.0105 154.6C94.2105 156.7 94.9105 157.6 96.6105 157.8C98.5105 158.1 98.8105 157.7 98.8105 154.7C98.8105 151.1 97.1105 149.6 94.9105 151Z" fill="#FFF2D0"/>
<rect x="64" y="134" width="114" height="42" fill="#FFF2D0"/>
<path d="M95.2646 1.80635C90.1387 4.11848 83.6588 11.4402 82.3047 16.6425C81.6277 18.8583 80.5639 34.0798 79.7901 50.4574C79.0164 66.835 77.9526 82.5382 77.469 85.332C75.7281 94.2915 69.7318 104.022 65.7664 104.022C63.4453 104.022 59.6734 99.5901 55.5146 91.594C46.4234 74.4457 31.2391 65.7753 16.4416 69.3398C6.2865 71.7482 0.0967153 80.226 0 91.6904C0 99.7828 1.74088 105.081 8.2208 116.064C11.0255 120.785 18.3759 134.465 24.6624 146.411C30.8522 158.357 38.1058 171.555 40.6204 175.794C54.0639 198.048 74.5675 214.041 98.1661 220.784C104.936 222.711 108.031 223 123.312 223C138.496 223 141.785 222.711 148.942 220.784C168.188 215.486 180.181 209.127 192.947 197.278C201.168 189.667 206.004 187.162 224.089 180.996C242.852 174.638 248.752 171.459 256.296 163.848C263.356 156.815 265 153.058 265 144.388C264.903 134.176 258.714 126.276 248.849 124.156C240.531 122.23 234.051 123.964 219.641 131.864C207.648 138.415 199.814 141.594 198.557 140.341C196.526 138.222 205.907 127.817 223.412 112.692C241.208 97.3743 244.303 92.3647 243.529 80.4187C243.046 73.1933 239.951 67.7984 234.051 63.9448C228.828 60.4766 218.286 59.7059 210.743 62.1144C206.004 63.6558 203.779 65.5826 186.564 82.9235C176.119 93.5208 166.834 102.095 165.867 102.095C161.805 102.095 167.995 91.594 183.179 72.7116C188.305 66.3533 193.914 58.3572 195.655 54.889C198.363 49.494 198.75 47.6636 198.75 41.4016C198.75 35.2359 198.363 33.4054 195.945 29.0702C187.918 14.7157 169.445 10.8622 157.549 20.9778C154.261 23.7716 151.456 28.6848 140.818 50.4574C133.661 64.8119 126.987 77.4322 125.827 78.3956L123.796 80.2261V73.8677C123.796 70.3032 125.343 58.5498 127.181 47.5672C129.018 36.681 130.566 25.891 130.566 23.5789C130.566 14.6194 124.763 5.6599 116.542 1.80635C111.319 -0.602112 100.584 -0.602112 95.2646 1.80635ZM115.188 15.2938C120.024 20.0144 120.024 21.0741 115.575 46.7965C110.836 74.1567 111.126 83.8869 116.735 88.8965C119.443 91.305 123.796 92.2684 127.374 91.305C133.177 89.7636 137.819 82.8272 150.973 56.1414C161.418 34.7542 163.836 30.5153 166.544 28.8775C174.861 23.7716 185.984 29.4556 187.338 39.5711C188.111 45.2551 185.5 50.9391 177.182 61.44C157.549 86.2954 153.777 92.3647 153.004 100.072C152.423 106.334 154.454 109.995 160.064 112.692C168.285 116.642 172.637 114.041 194.108 91.6904C202.715 82.7309 211.226 74.6384 213.064 73.7714C214.901 72.9043 218.577 72.2299 221.285 72.2299C225.25 72.2299 226.604 72.7116 229.119 75.0238C231.633 77.4322 232.117 78.492 232.117 82.3455C232.117 88.8965 229.892 91.883 215.675 104.022C194.204 122.326 186.661 131.864 186.661 140.63C186.661 143.906 187.241 145.255 189.852 147.856C196.526 154.503 205.036 153.154 224.863 142.268C236.469 135.91 237.92 135.332 243.046 135.332C248.075 135.332 249.042 135.621 251.073 138.029C253.781 141.208 254.168 146.892 252.04 151.131C250.009 154.889 243.723 160.38 237.823 163.366C235.018 164.715 226.507 167.991 218.867 170.592C200.297 176.854 195.075 179.744 185.21 188.511C175.151 197.663 167.898 202.191 156.872 206.141C143.622 210.958 135.015 212.21 119.443 211.632C103.969 211.15 96.9088 209.416 85.2062 203.154C70.8923 195.447 59.1898 184.079 50.0985 168.954C47.6807 164.715 40.5237 151.613 34.3339 139.763C28.0474 127.914 21.0839 114.908 18.6661 110.862C12.6697 100.746 11.6058 97.856 11.6058 91.594C11.6058 86.7771 11.9927 85.7174 14.4106 83.4052C20.2135 77.8176 30.2719 79.4553 38.0091 87.0661C40.2336 89.3782 44.0055 94.6769 46.3266 99.0121C50.969 107.683 55.1277 112.307 59.6734 114.234C68.958 118.184 78.0493 113.174 84.2391 100.843C88.7847 91.9794 89.8485 84.465 91.2993 51.8061C92.073 35.2359 93.0401 20.4961 93.6204 19.1473C94.2007 17.7986 96.0383 15.4865 97.6825 14.1377C100.197 12.0183 101.745 11.5366 106.097 11.5366C111.029 11.5366 111.706 11.8256 115.188 15.2938Z" fill="#016B5C"/>
<path d="M89.304 116.816H116.696V118.512H89.304V116.816ZM91.512 120.08H114.808V121.68H91.512V120.08ZM107.608 124.496V126.64H113.112V124.496H107.608ZM100.248 124.496V126.64H105.624V124.496H100.248ZM93.048 124.496V126.64H98.232V124.496H93.048ZM90.872 122.992H115.384V128.176H90.872V122.992ZM101.72 115.12H104.088V120.848H101.72V115.12ZM95.128 134.064V135.824H111.224V134.064H95.128ZM95.128 137.232V139.024H111.224V137.232H95.128ZM95.128 130.96V132.656H111.224V130.96H95.128ZM92.792 129.456H113.624V140.464H92.792V129.456ZM105.592 142.16L107.608 140.944C111.192 141.712 115.16 142.704 117.56 143.504L114.808 144.72C112.76 143.952 109.272 142.96 105.592 142.16ZM98.296 140.848L100.376 141.808C97.656 142.928 93.496 144.016 90.296 144.592C89.912 144.144 89.08 143.312 88.536 142.928C91.928 142.48 95.896 141.744 98.296 140.848ZM125.656 118.064H152.344V120.272H125.656V118.064ZM124.664 137.712H153.432V139.92H124.664V137.712ZM137.688 115.152H140.152V144.656H137.688V115.152ZM130.328 129.776V133.104H147.64V129.776H130.328ZM130.328 124.624V127.888H147.64V124.624H130.328ZM128.024 122.608H150.04V135.088H128.024V122.608ZM90.072 158.488L91.128 156.856C93.336 157.432 96.312 158.52 97.848 159.32L96.792 161.176C95.288 160.344 92.312 159.192 90.072 158.488ZM88.472 165.24C90.776 164.696 94.168 163.736 97.496 162.808L97.752 164.696C94.84 165.624 91.832 166.616 89.4 167.352L88.472 165.24ZM102.2 158.488H115.064V160.312H100.792L102.2 158.488ZM114.424 158.488H114.808L115.224 158.392L116.824 158.872C115.928 160.536 114.744 162.328 113.592 163.448L111.672 162.776C112.696 161.784 113.784 160.184 114.424 158.84V158.488ZM106.168 159.128H108.376C107.704 163.672 105.656 166.168 99.128 167.48C98.904 166.968 98.392 166.168 97.976 165.752C103.896 164.76 105.624 162.776 106.168 159.128ZM108.28 159.704C108.92 162.424 110.488 165.048 117.592 166.072C117.144 166.552 116.6 167.416 116.344 168.024C108.76 166.712 107.16 163.256 106.328 159.896L108.28 159.704ZM102.712 156.12L104.888 156.472C103.8 158.808 102.168 161.176 99.672 163.096C99.256 162.648 98.424 162.136 97.848 161.88C100.248 160.248 101.88 158.04 102.712 156.12ZM95.096 172.856V175.032H111.224V172.856H95.096ZM95.096 176.6V178.84H111.224V176.6H95.096ZM95.096 169.112V171.288H111.224V169.112H95.096ZM92.76 167.512H113.624V180.44H92.76V167.512ZM105.656 182.072L107.608 180.856C111.128 181.944 115 183.352 117.304 184.44L114.648 185.656C112.632 184.6 109.144 183.224 105.656 182.072ZM98.136 180.792L100.312 181.784C97.72 183.32 93.656 184.792 90.456 185.688C90.072 185.208 89.24 184.28 88.696 183.864C91.992 183.16 95.832 182.04 98.136 180.792ZM136.536 157.752H149.24V160.056H136.536V157.752ZM136.216 168.664H146.936V170.936H136.216V168.664ZM140.568 159.064H142.872V166.808C142.872 173.08 142.296 180.152 136.76 185.656C136.376 185.144 135.544 184.344 134.968 183.992C140.088 178.904 140.568 172.44 140.568 166.808V159.064ZM148.024 157.752H150.488C150.328 171.384 150.232 182.424 152.472 182.936C152.728 183 152.984 180.632 153.08 177.944C153.528 178.52 154.2 179.32 154.584 179.64C154.2 184.952 153.144 186.072 151.512 185.432C147.736 184.248 148.056 172.536 148.024 157.752ZM125.72 165.816H135.096V167.736H125.72V165.816ZM125.816 157.272H134.968V159.192H125.816V157.272ZM125.72 170.104H135.096V172.024H125.72V170.104ZM124.216 161.464H136.152V163.448H124.216V161.464ZM126.776 174.424H135.096V183.768H126.776V181.752H132.984V176.408H126.776V174.424ZM125.688 174.424H127.768V185.24H125.688V174.424Z" fill="#016B5C"/>
</svg>
