<svg width="402" height="65" viewBox="0 0 402 65" fill="none" xmlns="http://www.w3.org/2000/svg">
<path d="M98.666 24.3681C91.1701 20.0784 39.9806 22.5807 15.3229 24.3681C14.1722 24.3681 10.7858 24.7581 6.44607 26.3182C1.02137 28.2683 0.0350604 51.6665 6.44607 54.5913C12.8571 57.5161 94.2276 55.5662 98.666 51.6665C103.104 47.7667 108.036 29.7302 98.666 24.3681Z" fill="#02A3D8" stroke="#222222" stroke-width="4"/>
<path d="M12 37.9995C12 36.8949 12.8954 35.9995 14 35.9995H17C18.6569 35.9995 20 37.3427 20 38.9995V54.9995H12V37.9995Z" fill="white" stroke="#222222" stroke-width="4"/>
<path d="M16.5 59.9995C16.5 61.9325 14.933 63.4995 13 63.4995C11.6193 63.4995 10.5 62.3802 10.5 60.9995V55.4995H16.5V59.9995Z" fill="#222222" stroke="#222222" stroke-width="3"/>
<path d="M30.5 58.9995C30.5 60.3802 29.3807 61.4995 28 61.4995C26.067 61.4995 24.5 59.9325 24.5 57.9995V55.4995H30.5V58.9995Z" fill="#222222" stroke="#222222" stroke-width="3"/>
<path d="M74.5 60.9995C74.5 61.8279 73.8284 62.4995 73 62.4995C71.067 62.4995 69.5 60.9325 69.5 58.9995V57.4995H74.5V60.9995Z" fill="#222222" stroke="#222222" stroke-width="3"/>
<path d="M91.5 60.9995C91.5 61.8279 90.8284 62.4995 90 62.4995H89C87.067 62.4995 85.5 60.9325 85.5 58.9995V56.4995H91.5V60.9995Z" fill="#222222" stroke="#222222" stroke-width="3"/>
<mask id="path-7-inside-1_1117_6359" fill="white">
<path d="M79 34.9995C79 32.2381 81.2386 29.9995 84 29.9995H90C91.6569 29.9995 93 31.3427 93 32.9995V48.9995C93 52.3132 90.3137 54.9995 87 54.9995H83C80.7909 54.9995 79 53.2087 79 50.9995V34.9995Z"/>
</mask>
<path d="M79 34.9995C79 32.2381 81.2386 29.9995 84 29.9995H90C91.6569 29.9995 93 31.3427 93 32.9995V48.9995C93 52.3132 90.3137 54.9995 87 54.9995H83C80.7909 54.9995 79 53.2087 79 50.9995V34.9995Z" fill="white" stroke="#222222" stroke-width="8" mask="url(#path-7-inside-1_1117_6359)"/>
<mask id="path-8-inside-2_1117_6359" fill="white">
<path d="M27 35.9995C27 33.2381 29.2386 30.9995 32 30.9995H38C39.6569 30.9995 41 32.3427 41 33.9995V41.9995C41 44.7609 38.7614 46.9995 36 46.9995H31C28.7909 46.9995 27 45.2087 27 42.9995V35.9995Z"/>
</mask>
<path d="M27 35.9995C27 33.2381 29.2386 30.9995 32 30.9995H38C39.6569 30.9995 41 32.3427 41 33.9995V41.9995C41 44.7609 38.7614 46.9995 36 46.9995H31C28.7909 46.9995 27 45.2087 27 42.9995V35.9995Z" fill="white" stroke="#222222" stroke-width="8" mask="url(#path-8-inside-2_1117_6359)"/>
<path d="M47 36.9995C47 35.3427 48.3431 33.9995 50 33.9995H52C53.6569 33.9995 55 35.3427 55 36.9995V42.9995C55 44.1041 54.1046 44.9995 53 44.9995H50C48.3431 44.9995 47 43.6564 47 41.9995V36.9995Z" fill="white" stroke="#222222" stroke-width="4"/>
<mask id="path-10-inside-3_1117_6359" fill="white">
<path d="M22.295 18.5917C20.0246 17.0198 19.4583 13.9051 21.0302 11.6347L25.409 5.30985C26.9808 3.03945 30.0956 2.47315 32.366 4.045L39.639 9.08025C41.4553 10.3377 41.9083 12.8295 40.6509 14.6459L35.7029 21.7929C34.131 24.0633 31.0162 24.6296 28.7458 23.0577L22.295 18.5917Z"/>
</mask>
<path d="M22.295 18.5917C20.0246 17.0198 19.4583 13.9051 21.0302 11.6347L25.409 5.30985C26.9808 3.03945 30.0956 2.47315 32.366 4.045L39.639 9.08025C41.4553 10.3377 41.9083 12.8295 40.6509 14.6459L35.7029 21.7929C34.131 24.0633 31.0162 24.6296 28.7458 23.0577L22.295 18.5917Z" stroke="#222222" stroke-width="10" mask="url(#path-10-inside-3_1117_6359)"/>
<mask id="path-11-inside-4_1117_6359" fill="white">
<path d="M73.682 16.4116C71.6485 14.5433 71.5145 11.3803 73.3828 9.34683L78.5872 3.68197C80.4555 1.64847 83.6185 1.5145 85.652 3.38274L92.1661 9.36744C93.7929 10.862 93.9 13.3924 92.4054 15.0192L86.5244 21.4205C84.6562 23.454 81.4932 23.588 79.4597 21.7197L73.682 16.4116Z"/>
</mask>
<path d="M73.682 16.4116C71.6485 14.5433 71.5145 11.3803 73.3828 9.34683L78.5872 3.68197C80.4555 1.64847 83.6185 1.5145 85.652 3.38274L92.1661 9.36744C93.7929 10.862 93.9 13.3924 92.4054 15.0192L86.5244 21.4205C84.6562 23.454 81.4932 23.588 79.4597 21.7197L73.682 16.4116Z" stroke="#222222" stroke-width="10" mask="url(#path-11-inside-4_1117_6359)"/>
<mask id="path-12-inside-5_1117_6359" fill="white">
<path d="M62 36.9995C62 34.2381 64.2386 31.9995 67 31.9995H71C72.6569 31.9995 74 33.3427 74 34.9995V41.9995C74 44.7609 71.7614 46.9995 69 46.9995H65C63.3431 46.9995 62 45.6564 62 43.9995V36.9995Z"/>
</mask>
<path d="M62 36.9995C62 34.2381 64.2386 31.9995 67 31.9995H71C72.6569 31.9995 74 33.3427 74 34.9995V41.9995C74 44.7609 71.7614 46.9995 69 46.9995H65C63.3431 46.9995 62 45.6564 62 43.9995V36.9995Z" fill="white" stroke="#222222" stroke-width="8" mask="url(#path-12-inside-5_1117_6359)"/>
<path d="M246.666 24.3681C239.17 20.0784 187.981 22.5807 163.323 24.3681C162.172 24.3681 158.786 24.7581 154.446 26.3182C149.021 28.2683 148.035 51.6665 154.446 54.5913C160.857 57.5161 242.228 55.5662 246.666 51.6665C251.104 47.7667 256.036 29.7302 246.666 24.3681Z" fill="#02A3D8" stroke="#222222" stroke-width="4"/>
<path d="M160 37.9995C160 36.8949 160.895 35.9995 162 35.9995H165C166.657 35.9995 168 37.3427 168 38.9995V54.9995H160V37.9995Z" fill="white" stroke="#222222" stroke-width="4"/>
<path d="M164.5 59.9995C164.5 61.9325 162.933 63.4995 161 63.4995C159.619 63.4995 158.5 62.3802 158.5 60.9995V55.4995H164.5V59.9995Z" fill="#222222" stroke="#222222" stroke-width="3"/>
<path d="M178.5 58.9995C178.5 60.3802 177.381 61.4995 176 61.4995C174.067 61.4995 172.5 59.9325 172.5 57.9995V55.4995H178.5V58.9995Z" fill="#222222" stroke="#222222" stroke-width="3"/>
<path d="M222.5 60.9995C222.5 61.8279 221.828 62.4995 221 62.4995C219.067 62.4995 217.5 60.9325 217.5 58.9995V57.4995H222.5V60.9995Z" fill="#222222" stroke="#222222" stroke-width="3"/>
<path d="M239.5 60.9995C239.5 61.8279 238.828 62.4995 238 62.4995H237C235.067 62.4995 233.5 60.9325 233.5 58.9995V56.4995H239.5V60.9995Z" fill="#222222" stroke="#222222" stroke-width="3"/>
<mask id="path-19-inside-6_1117_6359" fill="white">
<path d="M227 34.9995C227 32.2381 229.239 29.9995 232 29.9995H238C239.657 29.9995 241 31.3427 241 32.9995V48.9995C241 52.3132 238.314 54.9995 235 54.9995H231C228.791 54.9995 227 53.2087 227 50.9995V34.9995Z"/>
</mask>
<path d="M227 34.9995C227 32.2381 229.239 29.9995 232 29.9995H238C239.657 29.9995 241 31.3427 241 32.9995V48.9995C241 52.3132 238.314 54.9995 235 54.9995H231C228.791 54.9995 227 53.2087 227 50.9995V34.9995Z" fill="white" stroke="#222222" stroke-width="8" mask="url(#path-19-inside-6_1117_6359)"/>
<mask id="path-20-inside-7_1117_6359" fill="white">
<path d="M175 35.9995C175 33.2381 177.239 30.9995 180 30.9995H186C187.657 30.9995 189 32.3427 189 33.9995V41.9995C189 44.7609 186.761 46.9995 184 46.9995H179C176.791 46.9995 175 45.2087 175 42.9995V35.9995Z"/>
</mask>
<path d="M175 35.9995C175 33.2381 177.239 30.9995 180 30.9995H186C187.657 30.9995 189 32.3427 189 33.9995V41.9995C189 44.7609 186.761 46.9995 184 46.9995H179C176.791 46.9995 175 45.2087 175 42.9995V35.9995Z" fill="white" stroke="#222222" stroke-width="8" mask="url(#path-20-inside-7_1117_6359)"/>
<path d="M195 36.9995C195 35.3427 196.343 33.9995 198 33.9995H200C201.657 33.9995 203 35.3427 203 36.9995V42.9995C203 44.1041 202.105 44.9995 201 44.9995H198C196.343 44.9995 195 43.6564 195 41.9995V36.9995Z" fill="white" stroke="#222222" stroke-width="4"/>
<mask id="path-22-inside-8_1117_6359" fill="white">
<path d="M170.295 18.5917C168.025 17.0198 167.458 13.9051 169.03 11.6347L173.409 5.30985C174.981 3.03945 178.096 2.47315 180.366 4.045L187.639 9.08025C189.455 10.3377 189.908 12.8295 188.651 14.6459L183.703 21.7929C182.131 24.0633 179.016 24.6296 176.746 23.0577L170.295 18.5917Z"/>
</mask>
<path d="M170.295 18.5917C168.025 17.0198 167.458 13.9051 169.03 11.6347L173.409 5.30985C174.981 3.03945 178.096 2.47315 180.366 4.045L187.639 9.08025C189.455 10.3377 189.908 12.8295 188.651 14.6459L183.703 21.7929C182.131 24.0633 179.016 24.6296 176.746 23.0577L170.295 18.5917Z" stroke="#222222" stroke-width="10" mask="url(#path-22-inside-8_1117_6359)"/>
<mask id="path-23-inside-9_1117_6359" fill="white">
<path d="M221.682 16.4116C219.648 14.5433 219.515 11.3803 221.383 9.34683L226.587 3.68197C228.455 1.64847 231.618 1.5145 233.652 3.38274L240.166 9.36744C241.793 10.862 241.9 13.3924 240.405 15.0192L234.524 21.4205C232.656 23.454 229.493 23.588 227.46 21.7197L221.682 16.4116Z"/>
</mask>
<path d="M221.682 16.4116C219.648 14.5433 219.515 11.3803 221.383 9.34683L226.587 3.68197C228.455 1.64847 231.618 1.5145 233.652 3.38274L240.166 9.36744C241.793 10.862 241.9 13.3924 240.405 15.0192L234.524 21.4205C232.656 23.454 229.493 23.588 227.46 21.7197L221.682 16.4116Z" stroke="#222222" stroke-width="10" mask="url(#path-23-inside-9_1117_6359)"/>
<mask id="path-24-inside-10_1117_6359" fill="white">
<path d="M210 36.9995C210 34.2381 212.239 31.9995 215 31.9995H219C220.657 31.9995 222 33.3427 222 34.9995V41.9995C222 44.7609 219.761 46.9995 217 46.9995H213C211.343 46.9995 210 45.6564 210 43.9995V36.9995Z"/>
</mask>
<path d="M210 36.9995C210 34.2381 212.239 31.9995 215 31.9995H219C220.657 31.9995 222 33.3427 222 34.9995V41.9995C222 44.7609 219.761 46.9995 217 46.9995H213C211.343 46.9995 210 45.6564 210 43.9995V36.9995Z" fill="white" stroke="#222222" stroke-width="8" mask="url(#path-24-inside-10_1117_6359)"/>
<path d="M394.666 24.3681C387.17 20.0784 335.981 22.5807 311.323 24.3681C310.172 24.3681 306.786 24.7581 302.446 26.3182C297.021 28.2683 296.035 51.6665 302.446 54.5913C308.857 57.5161 390.228 55.5662 394.666 51.6665C399.104 47.7667 404.036 29.7302 394.666 24.3681Z" fill="#02A3D8" stroke="#222222" stroke-width="4"/>
<path d="M308 37.9995C308 36.8949 308.895 35.9995 310 35.9995H313C314.657 35.9995 316 37.3427 316 38.9995V54.9995H308V37.9995Z" fill="white" stroke="#222222" stroke-width="4"/>
<path d="M312.5 59.9995C312.5 61.9325 310.933 63.4995 309 63.4995C307.619 63.4995 306.5 62.3802 306.5 60.9995V55.4995H312.5V59.9995Z" fill="#222222" stroke="#222222" stroke-width="3"/>
<path d="M326.5 58.9995C326.5 60.3802 325.381 61.4995 324 61.4995C322.067 61.4995 320.5 59.9325 320.5 57.9995V55.4995H326.5V58.9995Z" fill="#222222" stroke="#222222" stroke-width="3"/>
<path d="M370.5 60.9995C370.5 61.8279 369.828 62.4995 369 62.4995C367.067 62.4995 365.5 60.9325 365.5 58.9995V57.4995H370.5V60.9995Z" fill="#222222" stroke="#222222" stroke-width="3"/>
<path d="M387.5 60.9995C387.5 61.8279 386.828 62.4995 386 62.4995H385C383.067 62.4995 381.5 60.9325 381.5 58.9995V56.4995H387.5V60.9995Z" fill="#222222" stroke="#222222" stroke-width="3"/>
<mask id="path-31-inside-11_1117_6359" fill="white">
<path d="M375 34.9995C375 32.2381 377.239 29.9995 380 29.9995H386C387.657 29.9995 389 31.3427 389 32.9995V48.9995C389 52.3132 386.314 54.9995 383 54.9995H379C376.791 54.9995 375 53.2087 375 50.9995V34.9995Z"/>
</mask>
<path d="M375 34.9995C375 32.2381 377.239 29.9995 380 29.9995H386C387.657 29.9995 389 31.3427 389 32.9995V48.9995C389 52.3132 386.314 54.9995 383 54.9995H379C376.791 54.9995 375 53.2087 375 50.9995V34.9995Z" fill="white" stroke="#222222" stroke-width="8" mask="url(#path-31-inside-11_1117_6359)"/>
<mask id="path-32-inside-12_1117_6359" fill="white">
<path d="M323 35.9995C323 33.2381 325.239 30.9995 328 30.9995H334C335.657 30.9995 337 32.3427 337 33.9995V41.9995C337 44.7609 334.761 46.9995 332 46.9995H327C324.791 46.9995 323 45.2087 323 42.9995V35.9995Z"/>
</mask>
<path d="M323 35.9995C323 33.2381 325.239 30.9995 328 30.9995H334C335.657 30.9995 337 32.3427 337 33.9995V41.9995C337 44.7609 334.761 46.9995 332 46.9995H327C324.791 46.9995 323 45.2087 323 42.9995V35.9995Z" fill="white" stroke="#222222" stroke-width="8" mask="url(#path-32-inside-12_1117_6359)"/>
<path d="M343 36.9995C343 35.3427 344.343 33.9995 346 33.9995H348C349.657 33.9995 351 35.3427 351 36.9995V42.9995C351 44.1041 350.105 44.9995 349 44.9995H346C344.343 44.9995 343 43.6564 343 41.9995V36.9995Z" fill="white" stroke="#222222" stroke-width="4"/>
<mask id="path-34-inside-13_1117_6359" fill="white">
<path d="M318.295 18.5917C316.025 17.0198 315.458 13.9051 317.03 11.6347L321.409 5.30985C322.981 3.03945 326.096 2.47315 328.366 4.045L335.639 9.08025C337.455 10.3377 337.908 12.8295 336.651 14.6459L331.703 21.7929C330.131 24.0633 327.016 24.6296 324.746 23.0577L318.295 18.5917Z"/>
</mask>
<path d="M318.295 18.5917C316.025 17.0198 315.458 13.9051 317.03 11.6347L321.409 5.30985C322.981 3.03945 326.096 2.47315 328.366 4.045L335.639 9.08025C337.455 10.3377 337.908 12.8295 336.651 14.6459L331.703 21.7929C330.131 24.0633 327.016 24.6296 324.746 23.0577L318.295 18.5917Z" stroke="#222222" stroke-width="10" mask="url(#path-34-inside-13_1117_6359)"/>
<mask id="path-35-inside-14_1117_6359" fill="white">
<path d="M369.682 16.4116C367.648 14.5433 367.515 11.3803 369.383 9.34683L374.587 3.68197C376.455 1.64847 379.618 1.5145 381.652 3.38274L388.166 9.36744C389.793 10.862 389.9 13.3924 388.405 15.0192L382.524 21.4205C380.656 23.454 377.493 23.588 375.46 21.7197L369.682 16.4116Z"/>
</mask>
<path d="M369.682 16.4116C367.648 14.5433 367.515 11.3803 369.383 9.34683L374.587 3.68197C376.455 1.64847 379.618 1.5145 381.652 3.38274L388.166 9.36744C389.793 10.862 389.9 13.3924 388.405 15.0192L382.524 21.4205C380.656 23.454 377.493 23.588 375.46 21.7197L369.682 16.4116Z" stroke="#222222" stroke-width="10" mask="url(#path-35-inside-14_1117_6359)"/>
<mask id="path-36-inside-15_1117_6359" fill="white">
<path d="M358 36.9995C358 34.2381 360.239 31.9995 363 31.9995H367C368.657 31.9995 370 33.3427 370 34.9995V41.9995C370 44.7609 367.761 46.9995 365 46.9995H361C359.343 46.9995 358 45.6564 358 43.9995V36.9995Z"/>
</mask>
<path d="M358 36.9995C358 34.2381 360.239 31.9995 363 31.9995H367C368.657 31.9995 370 33.3427 370 34.9995V41.9995C370 44.7609 367.761 46.9995 365 46.9995H361C359.343 46.9995 358 45.6564 358 43.9995V36.9995Z" fill="white" stroke="#222222" stroke-width="8" mask="url(#path-36-inside-15_1117_6359)"/>
</svg>
