<svg width="458" height="209" viewBox="0 0 458 209" fill="none" xmlns="http://www.w3.org/2000/svg">
<path d="M405.74 173.086C412.439 186.371 424.96 194.163 433.708 190.491C442.455 186.82 444.116 173.074 437.418 159.789C430.719 146.505 418.198 138.712 409.45 142.384C400.703 146.056 399.042 159.802 405.74 173.086Z" fill="#8DABE6"/>
<path d="M411.024 167.891C415.702 182.013 425.822 191.883 433.627 189.939C441.432 187.994 443.968 174.97 439.29 160.849C434.612 146.728 424.493 136.857 416.688 138.802C408.882 140.746 406.347 153.77 411.024 167.891Z" fill="#8DABE6"/>
<path fill-rule="evenodd" clip-rule="evenodd" d="M352.296 181.655C354.209 186.854 357.367 190.315 361.698 191.314C370.448 193.332 381.731 184.788 391.128 170.469C392.524 168.342 394.844 166.939 397.343 166.804C397.694 166.786 398.043 166.766 398.389 166.746C400.834 166.605 402.997 168.018 403.962 170.183V170.183C410.341 184.493 422.888 193.675 431.985 190.692C435.242 189.624 437.616 187.141 439.028 183.737C439.156 183.429 439.304 183.127 439.448 182.825V182.825C446.903 167.225 429.302 128.471 419.075 111.031C410.251 95.9841 401.879 92.4997 397.297 91.7872C397.222 91.768 397.146 91.7496 397.069 91.7319C384.199 88.7631 365.848 108.648 356.08 136.147C350.615 151.534 348.995 166.044 350.883 176.361C350.895 176.523 350.907 176.682 350.919 176.837C350.978 177.586 351.113 178.323 351.337 179.032C351.646 180.013 351.966 180.884 352.296 181.655Z" fill="#3A8FF3"/>
<path d="M416.37 128.47C416.045 132.283 412.541 135.245 408.542 135.084C404.543 134.923 401.564 131.701 401.888 127.888C402.212 124.074 405.717 121.113 409.716 121.273C413.715 121.434 416.694 124.656 416.37 128.47Z" fill="white"/>
<path d="M410.803 128.421C410.692 130.122 409.092 131.462 407.229 131.413C405.367 131.364 403.946 129.946 404.057 128.245C404.167 126.544 405.767 125.205 407.63 125.253C409.493 125.302 410.913 126.72 410.803 128.421Z" fill="black"/>
<path d="M393.556 126.367C392.485 131.341 387.417 134.935 382.235 134.396C377.054 133.856 373.722 129.386 374.793 124.412C375.863 119.438 380.932 115.844 386.113 116.383C391.295 116.923 394.627 121.393 393.556 126.367Z" fill="white"/>
<path d="M391.714 126.662C391.394 128.616 389.318 130.069 387.077 129.905C384.835 129.742 383.277 128.025 383.597 126.07C383.916 124.116 385.993 122.664 388.234 122.827C390.476 122.99 392.034 124.707 391.714 126.662Z" fill="black"/>
<path d="M397.923 141.527C397.413 140.535 396.122 140.469 395.418 141.399L389.703 148.942C388.885 150.022 389.455 151.588 390.689 151.651L400.546 152.156C401.78 152.22 402.658 150.728 402.066 149.576L397.923 141.527Z" fill="#C43131"/>
<path d="M197.151 103.857C200.554 93.2405 215.182 93.2405 218.584 103.857L241.833 176.393C244.234 183.884 238.798 191.595 231.116 191.595H184.62C176.938 191.595 171.502 183.884 173.903 176.393L197.151 103.857Z" fill="#FFF09F" fill-opacity="0.86"/>
<path d="M178.704 161.626C175.352 171.218 174.968 173.453 173.266 180.015C172.415 187.335 177.805 189.607 180.358 190.617C189.436 192.636 198.711 191.391 207.308 191.374C217.12 191.354 228.696 193.281 235.659 190.617C239.27 189.235 243.152 185.833 242.483 181.53C242.483 178.753 241.856 173.211 236.805 160.758C215.361 175.034 187.591 167.575 178.704 161.626Z" fill="#FFB11A"/>
<path d="M222.816 117.037C212.887 123.751 198.213 119.834 192.919 117.037C190.691 123.185 188.491 130.636 186.432 137.258C193.231 141.882 211.324 148.356 229.303 137.258C227.329 131.514 225.354 124.855 222.816 117.037Z" fill="#FFB11A"/>
<path d="M130.969 127.882C131.683 134.16 123.986 140.19 113.776 141.35C103.566 142.511 94.7104 138.363 93.9961 132.085C93.2818 125.808 100.979 119.778 111.189 118.617C121.399 117.457 130.255 121.605 130.969 127.882Z" fill="#FF0000"/>
<path fill-rule="evenodd" clip-rule="evenodd" d="M133.703 137.967C129.231 139.434 127.653 139.777 120.561 139.83C118.7 139.844 114.642 139.041 112.426 138.125C112.167 138.018 111.911 137.913 111.658 137.809C109.614 136.971 107.771 136.215 105.786 134.938C103.255 133.308 101.602 131.616 100.233 130.214C100.044 130.02 99.8609 129.832 99.6811 129.65C97.9364 127.888 96.7082 126.14 95.7639 124.549C95.0052 123.27 94.3777 121.827 93.8644 120.647C93.6723 120.205 93.4962 119.8 93.3352 119.455C92.2597 117.145 91.8476 115.075 91.5341 113.5C91.4709 113.182 91.4118 112.885 91.352 112.61C91.0243 111.102 90.5519 106.952 91.4877 101.833C91.8295 99.9632 92.4997 97.8009 93.5308 95.2714C94.3816 93.184 95.8366 90.6042 98.0292 87.8454C100.515 84.7176 104.492 81.9267 107.871 79.9201C109.27 79.089 110.232 78.7225 111.268 78.3281C111.532 78.2276 111.8 78.1253 112.082 78.0131C113.624 77.399 115.432 76.8626 116.904 76.6349C120.394 76.0947 123.474 75.7034 128.461 76.6041C131.436 77.1417 132.812 77.6846 135.168 78.6145C135.344 78.6839 135.525 78.7554 135.713 78.8292C138.322 80.093 140.821 81.4358 143.229 82.9858C149.951 87.3125 158.983 87.6 165.129 80.3773C165.178 80.3197 165.227 80.2621 165.277 80.2043C166.51 78.7565 167.81 77.2308 168.831 74.9084C168.851 74.8646 168.871 74.8221 168.89 74.7796C168.953 74.6457 169.015 74.5122 169.059 74.3383C169.059 74.3383 169.108 74.1725 169.232 73.9221C169.476 73.4282 169.661 72.7436 169.843 72.0671C169.89 71.8935 169.937 71.7204 169.984 71.5512C170.203 70.7737 170.318 69.8766 170.46 68.7806C170.507 68.4141 170.557 68.0252 170.615 67.6112C172.911 51.1606 152.805 23.4184 118.309 19.8943C100.879 18.1138 74.0539 19.9869 53.0347 37.7513C38.2848 50.2171 24.2856 65.7218 19.4542 96.4838C18.1743 104.633 19.2947 116.138 21.3034 124.918C23.3121 133.698 26.4402 142.31 30.2504 149.199C37.4541 162.224 46.0322 173.611 62.9311 183.271C72.3629 188.662 89.7449 197.948 120.143 194.155C125.387 193.5 128.3 192.883 131.975 191.584L132.096 191.542C136.894 189.846 138.15 189.402 142.502 186.817C144.604 185.568 147.188 183.471 149.73 180.764C151.132 179.432 152.48 177.976 153.755 176.403C164.646 162.959 166.027 146.016 156.841 138.561C152.985 135.432 147.879 134.471 142.448 135.405C140.947 135.62 139.598 135.928 138.613 136.239C138.147 136.386 137.492 136.625 136.732 136.902C135.824 137.232 134.767 137.618 133.703 137.967Z" fill="#D0E69F"/>
<path d="M139.708 60.4694C136.501 66.1728 129.844 68.5089 124.838 65.6871C119.833 62.8653 118.374 55.9542 121.581 50.2508C124.788 44.5474 131.445 42.2113 136.451 45.0331C141.456 47.8549 142.915 54.766 139.708 60.4694Z" fill="white"/>
<path d="M134.616 57.6359C133.229 60.2016 130.199 61.2489 127.848 59.975C125.497 58.7011 124.715 55.5884 126.102 53.0227C127.489 50.4569 130.518 49.4097 132.869 50.6836C135.22 51.9575 136.002 55.0701 134.616 57.6359Z" fill="black"/>
<path d="M110.013 54.3571C106.027 62.0105 97.3144 65.573 90.5526 62.3142C83.7908 59.0554 81.5405 50.2093 85.5266 42.5559C89.5126 34.9025 98.2254 31.34 104.987 34.5988C111.749 37.8577 113.999 46.7037 110.013 54.3571Z" fill="white"/>
<path d="M103.999 50.8695C102.57 53.9234 99.0111 55.3494 96.0502 54.0547C93.0893 52.7599 91.8474 49.2347 93.2763 46.1808C94.7053 43.127 98.2639 41.701 101.225 42.9957C104.186 44.2905 105.428 47.8157 103.999 50.8695Z" fill="black"/>
<path fill-rule="evenodd" clip-rule="evenodd" d="M331.039 120.44C331.484 125.239 330.79 129.892 329.168 134.157C329.086 134.392 329.002 134.629 328.915 134.866C326.113 142.499 323.057 151.508 328.489 157.708C329.515 158.88 330.472 160.045 331.359 161.197C337.717 169.452 339.686 177.497 339.261 181.543L339.258 181.571C339.212 184.772 338.217 187.417 336.176 189.167C332.868 192.003 327.438 191.953 321.332 189.579C321.021 189.47 320.711 189.356 320.401 189.236C320.281 189.19 320.176 189.132 320.084 189.066C314.31 186.56 308.034 182.067 302.43 176.042C300.681 174.162 299.094 172.237 297.679 170.301C297.576 170.205 297.47 170.103 297.361 169.994C295.148 167.792 293.23 168.19 292.193 170.212C290.689 177.44 287.252 183.502 282.93 187.186C282.84 187.285 282.756 187.371 282.677 187.442C277.985 191.707 270.744 192.458 265.054 188.447C261.164 185.705 257.999 180.735 256.871 173.14C254.965 160.966 256.081 148.895 256.253 147.263C256.296 146.854 256.339 146.444 256.382 146.032C258.361 127.099 260.588 105.797 280.709 95.2918C282.357 94.4312 284.339 93.6562 286.543 93.0298C288.995 92.246 291.58 91.7161 294.265 91.476C296.695 91.2586 299.088 91.2892 301.416 91.5459C304.865 91.8179 308.324 92.5508 311.55 93.8825C314.901 95.2654 321.622 98.8472 326.279 106.651C328.884 110.706 330.569 115.38 331.039 120.44Z" fill="#E5C26D"/>
<path d="M308.378 120.247C309.807 128.069 304.352 135.599 296.192 137.065C288.033 138.531 280.26 133.379 278.831 125.557C277.402 117.735 282.858 110.205 291.017 108.739C299.176 107.272 306.949 112.425 308.378 120.247Z" fill="white"/>
<path d="M297.429 121.989C297.825 124.155 296.314 126.24 294.055 126.646C291.795 127.052 289.643 125.625 289.247 123.459C288.851 121.293 290.362 119.208 292.621 118.802C294.881 118.396 297.033 119.823 297.429 121.989Z" fill="#B79234"/>
</svg>
