<svg width="142" height="270" viewBox="0 0 142 270" fill="none" xmlns="http://www.w3.org/2000/svg">
<path d="M59.8032 27.9872C59.7444 27.7296 59.7276 27.4425 59.7529 27.1259C59.7943 26.8166 59.8589 26.4982 59.9468 26.171C60.0347 25.8438 60.1342 25.5121 60.2454 25.1759C60.3726 24.8469 60.4927 24.534 60.6056 24.2372L61.7508 21.2763C61.9104 20.7882 62.0278 20.4162 62.1031 20.1605C62.1945 19.912 62.2779 19.6599 62.3532 19.4042C62.4518 19.1396 62.5719 18.8267 62.7134 18.4655C62.8783 18.0954 63.1183 17.5563 63.4337 16.8483C63.5412 16.607 63.637 16.3701 63.7213 16.1376C63.8216 15.9123 63.922 15.6871 64.0223 15.4618C64.2803 14.8825 64.6007 14.5528 64.9835 14.4726C65.3896 14.3835 65.8259 14.4428 66.2926 14.6507C66.5661 14.7725 66.8486 14.9176 67.14 15.0859C67.4386 15.2382 67.7407 15.3824 68.0464 15.5186C68.6096 15.7694 69.197 15.9442 69.8086 16.0431C70.4274 16.1258 71.0157 16.2336 71.5737 16.3664C71.8955 16.5097 72.1296 16.7201 72.2761 16.9974C72.4297 17.2586 72.4527 17.51 72.3452 17.7513C72.2449 17.9766 72.0721 18.1696 71.827 18.3304C71.589 18.4751 71.2948 18.5079 70.9443 18.429C70.2594 18.2782 69.5512 18.1364 68.8198 18.0034C68.0884 17.8705 67.3848 17.6536 66.709 17.3526C66.532 17.2737 66.355 17.1949 66.178 17.1161C66.001 17.0372 65.8553 16.9531 65.7409 16.8635C65.4846 17.4822 65.2391 18.0767 65.0044 18.647C64.7697 19.2174 64.5501 19.7752 64.3458 20.3206L64.3699 20.3313C65.6502 20.7473 66.833 21.1873 67.9183 21.6513C69.0107 22.0993 70.1603 22.5921 71.3672 23.1296C71.8909 23.5556 72.0417 24.0181 71.8195 24.5169C71.7192 24.7422 71.5375 24.912 71.2745 25.0262C71.0347 25.1316 70.7593 25.1439 70.4482 25.0631C70.3194 25.0058 70.062 24.8911 69.6758 24.7191C69.3057 24.5543 68.8676 24.3689 68.3616 24.1628C67.8628 23.9406 67.3363 23.7157 66.782 23.4882C66.2349 23.2445 65.7209 23.0348 65.2399 22.8592C64.7822 22.6746 64.3933 22.5303 64.0732 22.4264C63.7692 22.3295 63.6065 22.3053 63.585 22.3535C63.2625 23.0776 62.9802 23.8197 62.7382 24.5796C62.5194 25.3306 62.2881 26.0664 62.0443 26.787C62.5504 26.8196 63.086 26.8942 63.6511 27.0109C64.2234 27.1115 64.7974 27.2515 65.3731 27.4308C65.965 27.6173 66.5577 27.8234 67.1514 28.0492C67.745 28.275 68.3153 28.5098 68.8624 28.7534C69.1269 29.0255 69.2841 29.2787 69.334 29.513C69.4072 29.7384 69.3972 29.9557 69.304 30.1649C69.2037 30.3902 69.022 30.56 68.759 30.6742C68.5193 30.7796 68.2438 30.7919 67.9327 30.7112C67.1925 30.3815 66.395 30.0938 65.5403 29.8481C64.6927 29.5863 63.8907 29.3738 63.1343 29.2104C62.4011 29.0381 61.7717 28.8928 61.246 28.7743C60.7131 28.672 60.3983 28.5993 60.3018 28.5563C60.2213 28.5205 60.1391 28.4453 60.0551 28.3307C59.9801 28.2395 59.8961 28.1249 59.8032 27.9872Z" fill="black"/>
<path d="M50.487 12.3186C50.8669 13.4817 51.1507 14.7142 51.3384 16.0161C51.5298 17.3007 51.7662 18.5861 52.0475 19.8721C52.0461 19.9619 52.0269 20.0929 51.9897 20.2651C51.9192 20.5923 51.7755 20.8406 51.5588 21.0101C51.3383 21.1968 51.0645 21.2549 50.7373 21.1843C50.5307 21.1397 50.3457 21.0368 50.1822 20.8754C50.0188 20.714 49.9219 20.4949 49.8915 20.218C49.7656 19.6322 49.6501 19.0397 49.5451 18.4404C49.4573 17.8448 49.3677 17.2579 49.2762 16.6795C49.1884 16.084 49.0883 15.5037 48.9758 14.9389C48.8634 14.374 48.7263 13.8399 48.5646 13.3365C47.7668 13.7771 46.8533 14.2108 45.8243 14.6376L45.7356 14.6725C45.5773 15.3231 45.422 16.0014 45.2697 16.7074C45.1212 17.3962 44.9633 18.128 44.7962 18.9028C44.7368 19.1784 44.5815 19.3971 44.3303 19.5592C44.0791 19.7213 43.833 19.7763 43.5919 19.7243C43.3508 19.6723 43.1197 19.5324 42.8986 19.3045C42.6947 19.0803 42.6317 18.7874 42.7097 18.4258C42.9919 17.1172 43.2698 15.8706 43.5432 14.6862C43.8167 13.5018 44.0865 12.3346 44.3525 11.1847C44.6358 10.0384 44.9123 8.88172 45.182 7.71454C45.4727 6.53385 45.761 5.28058 46.047 3.95471C46.1864 3.6424 46.3676 3.42919 46.5904 3.31507C46.8304 3.20466 47.0747 3.15824 47.3232 3.17579C47.5471 3.22407 47.7351 3.35473 47.8874 3.56777C48.0434 3.7636 48.1291 4.03437 48.1447 4.3801C47.8661 5.67153 47.5883 6.91805 47.3111 8.11967C47.0376 9.30407 46.7611 10.4608 46.4816 11.5898L46.3813 12.0547C47.509 11.5051 48.6915 10.8681 49.9289 10.1439C51.1663 9.41967 52.3792 8.60007 53.5677 7.68509C53.7007 7.56962 53.8312 7.50766 53.9592 7.49922C54.1043 7.49449 54.2391 7.49652 54.3633 7.5053C54.6388 7.56472 54.8632 7.69419 55.0364 7.89373C55.2268 8.09698 55.2849 8.3708 55.2106 8.71518C55.192 8.80127 55.163 8.89412 55.1235 8.99372C55.0877 9.0761 55.0433 9.15663 54.9903 9.23529C54.2563 9.79779 53.5211 10.324 52.7848 10.8139C52.0656 11.3075 51.3434 11.7734 50.6182 12.2117L50.487 12.3186Z" fill="black"/>
<path d="M26.0465 10.5304C25.9584 10.5128 25.8791 10.504 25.8087 10.504C25.7734 10.504 25.6854 10.6361 25.5444 10.9004C25.4035 11.147 25.2362 11.4376 25.0424 11.7723C24.8663 12.0894 24.6901 12.4152 24.514 12.7499C24.3378 13.067 24.2057 13.296 24.1176 13.4369C23.8358 13.7716 23.5187 13.9389 23.1664 13.9389C22.9022 13.9389 22.6732 13.8509 22.4794 13.6747C22.2857 13.4809 22.1888 13.2079 22.1888 12.8556C22.1888 12.7147 22.1976 12.6002 22.2152 12.5121C22.7965 11.4905 23.3514 10.4864 23.8798 9.49996C24.4083 8.51352 24.9543 7.53589 25.518 6.56707C26.0993 5.59825 26.707 4.65584 27.3412 3.73987C27.9753 2.80627 28.6887 1.8991 29.4814 1.01835C29.6047 0.877432 29.7368 0.789357 29.8777 0.754127C30.0186 0.701282 30.1508 0.666052 30.2741 0.648438C30.5383 0.648438 30.7585 0.74532 30.9346 0.939085C31.1284 1.13285 31.2429 1.37065 31.2781 1.65249C31.2253 1.84626 31.1636 1.97837 31.0932 2.04883L31.3045 1.94314C31.5335 1.94314 31.7713 2.00479 32.0179 2.1281C32.2822 2.2514 32.4671 2.4892 32.5728 2.8415C32.7137 3.82794 32.8811 4.78796 33.0748 5.72155C33.2686 6.63753 33.4536 7.56232 33.6297 8.49591C33.8235 9.41189 33.9908 10.3367 34.1317 11.2703C34.2903 12.2039 34.3872 13.1727 34.4224 14.1767C34.4224 14.529 34.3167 14.8021 34.1053 14.9958C33.8939 15.172 33.6649 15.2601 33.4183 15.2601C33.1541 15.2601 32.8987 15.1808 32.6521 15.0223C32.4231 14.8637 32.291 14.5907 32.2557 14.2032C32.2205 12.9701 32.1148 11.8075 31.9387 10.7154C31.9034 10.7506 31.8066 10.777 31.648 10.7947C30.6968 10.7947 29.7456 10.7506 28.7944 10.6626C27.8608 10.5745 26.9448 10.5304 26.0465 10.5304ZM26.9712 8.41664C27.6054 8.45187 28.3452 8.49591 29.1907 8.54875C30.0363 8.6016 30.8113 8.62802 31.5159 8.62802H31.5423L31.5159 8.49591C31.4631 8.31976 31.4014 8.06434 31.331 7.72966C31.2605 7.39497 31.1812 7.03387 31.0932 6.64634C31.0227 6.25881 30.9434 5.86247 30.8553 5.45733C30.7849 5.03457 30.7144 4.65584 30.644 4.32116C30.5735 3.98648 30.5119 3.71344 30.459 3.50206C30.4238 3.29068 30.4062 3.18499 30.4062 3.18499C30.2476 3.32591 30.0274 3.58133 29.7456 3.95125C29.499 4.26831 29.1819 4.73511 28.7944 5.35164C28.4069 5.95054 27.9225 6.76964 27.3412 7.80892L26.9712 8.41664Z" fill="black"/>
<path d="M9.59135 1.45324L10.2519 0.475604C10.5161 0.24661 10.7011 0.114497 10.8068 0.0792674C10.9301 0.0264225 11.0798 0 11.256 0H11.4409L11.8108 0.10569L12.0486 0.31707C12.2248 0.475604 12.3745 0.731022 12.4978 1.08332C12.6211 1.41801 12.7268 1.77911 12.8149 2.16664C12.903 2.55417 12.9734 2.93289 13.0263 3.30281C13.0791 3.65511 13.132 3.93695 13.1848 4.14833C13.3081 4.72962 13.405 5.22284 13.4755 5.62798C13.5459 6.03313 13.6076 6.41185 13.6604 6.76415C13.7133 7.11645 13.7661 7.49517 13.8189 7.90032C13.8894 8.30546 13.9863 8.79868 14.1096 9.37997C14.2505 10.1022 14.3738 10.798 14.4795 11.4673C14.6028 12.1191 14.6645 12.7973 14.6645 13.5019C14.6645 14.136 14.55 14.5588 14.321 14.7702C14.092 14.9815 13.8013 15.0872 13.449 15.0872C13.1848 15.052 12.9646 14.9463 12.7885 14.7702C12.6123 14.594 12.5154 14.3474 12.4978 14.0303C12.5154 13.8894 12.5242 13.7573 12.5242 13.634C12.5419 13.5107 12.5507 13.3786 12.5507 13.2377C12.5507 12.5507 12.4714 11.8901 12.3129 11.256C12.1719 10.6042 12.031 9.92604 11.8901 9.22144C11.6435 7.95316 11.4497 6.86103 11.3088 5.94505C11.1855 5.02908 11.0182 4.16594 10.8068 3.35565L10.6747 3.54061C10.34 4.03383 10.0053 4.55347 9.67062 5.09954C9.33594 5.62798 9.01006 6.15643 8.69299 6.68488C8.39354 7.21333 8.10289 7.71536 7.82105 8.19096C7.55682 8.66657 7.31902 9.08933 7.10764 9.45924C6.79057 9.82916 6.48231 10.0141 6.18286 10.0141C5.90102 10.0141 5.62798 9.87319 5.36376 9.59135C5.11715 9.2919 4.87935 8.92199 4.65035 8.48161C4.42136 8.04124 4.20998 7.57444 4.01621 7.08122C3.84006 6.57039 3.68153 6.1124 3.54061 5.70725L2.72151 3.77841C2.58059 4.44778 2.4661 5.17 2.37802 5.94505C2.30756 6.7025 2.25472 7.49517 2.21949 8.32308C2.18426 9.13337 2.15783 9.96127 2.14022 10.8068C2.14022 11.6523 2.14022 12.489 2.14022 13.3169C2.14022 13.634 2.02572 13.8894 1.79673 14.0832C1.56773 14.2769 1.32993 14.3738 1.08332 14.3738C0.766251 14.3738 0.528449 14.2946 0.369914 14.136C0.228995 13.9775 0.132112 13.7573 0.0792674 13.4755C0.0264225 13.1936 0 12.8765 0 12.5242C0 12.1543 0 11.7668 0 11.3617C0 10.1462 0.0264225 8.9396 0.0792674 7.74178C0.132112 6.54396 0.28184 5.33734 0.528449 4.1219C0.598909 3.89291 0.651754 3.57584 0.686984 3.1707C0.739829 2.74794 0.819096 2.34279 0.924786 1.95526C1.04809 1.56773 1.21543 1.23305 1.42681 0.951209C1.65581 0.651754 1.97288 0.502027 2.37802 0.502027C2.69509 0.502027 3.02097 0.669369 3.35565 1.00405C3.69034 1.32112 4.00741 1.73508 4.30686 2.24591C4.62393 2.75674 4.91458 3.32042 5.1788 3.93695C5.46064 4.55347 5.69844 5.16119 5.89221 5.7601C6.05074 6.28855 6.19166 6.55277 6.31497 6.55277C6.31497 6.55277 6.37662 6.4647 6.49993 6.28855C6.62323 6.1124 6.77296 5.89221 6.94911 5.62798C7.12526 5.34615 7.31021 5.04669 7.50398 4.72962C7.71536 4.39494 7.90912 4.06906 8.08527 3.75199L9.27428 1.92884C9.37997 1.80554 9.48566 1.647 9.59135 1.45324Z" fill="black"/>
<path d="M123.414 142.604C123.157 142.459 122.981 142.269 122.887 142.033C122.789 141.814 122.76 141.61 122.8 141.421C122.862 141.128 123.001 140.896 123.217 140.726C123.451 140.559 123.743 140.495 124.095 140.533C124.567 140.687 125.044 140.815 125.527 140.917C126.612 141.147 127.72 141.273 128.849 141.296C129.975 141.337 131.123 141.444 132.292 141.62L133.042 141.779C133.3 141.833 133.591 141.904 133.915 141.99C134.239 142.077 134.552 142.17 134.855 142.27C135.158 142.371 135.435 142.465 135.686 142.554C135.951 142.664 136.155 142.762 136.3 142.846L136.542 142.978C136.645 143 136.733 143.055 136.804 143.142C136.889 143.25 136.955 143.363 137.002 143.481C137.046 143.616 137.072 143.748 137.081 143.876C137.107 144.007 137.111 144.116 137.093 144.202C137.042 144.444 136.906 144.658 136.687 144.846C135.993 145.401 135.246 145.954 134.445 146.505C133.658 147.076 132.863 147.601 132.059 148.079C131.252 148.575 130.456 149.019 129.671 149.411C128.886 149.803 128.174 150.102 127.536 150.309L129.183 150.82C129.906 151.063 130.66 151.285 131.446 151.488C132.228 151.707 133.039 151.915 133.88 152.111C134.025 152.106 134.149 152.114 134.253 152.136C134.597 152.209 134.844 152.36 134.994 152.59C135.143 152.819 135.187 153.081 135.125 153.374C135.074 153.615 134.989 153.804 134.87 153.941C134.747 154.095 134.608 154.2 134.452 154.257C134.292 154.332 134.122 154.368 133.943 154.366C133.78 154.367 133.621 154.352 133.466 154.319C133.191 154.261 132.92 154.176 132.656 154.066C132.404 153.977 132.167 153.909 131.943 153.862C130.517 153.452 129.119 153.039 127.749 152.623C126.395 152.21 124.995 151.851 123.548 151.545C123.224 151.458 122.97 151.296 122.786 151.059C122.598 150.84 122.541 150.557 122.614 150.213C122.654 150.023 122.753 149.855 122.91 149.708C123.063 149.579 123.232 149.461 123.416 149.356C123.601 149.251 123.781 149.163 123.958 149.093C124.132 149.04 124.257 149.003 124.333 148.983L125.382 148.746C127.018 148.246 128.56 147.6 130.006 146.808C131.465 146.036 132.798 145.184 134.004 144.251C133.77 144.165 133.527 144.078 133.276 143.989C133.038 143.92 132.799 143.861 132.558 143.81C131.903 143.671 131.241 143.567 130.571 143.497C129.898 143.445 129.225 143.393 128.552 143.34C127.896 143.291 127.233 143.232 126.564 143.162C125.891 143.11 125.218 143.013 124.546 142.87C124.357 142.83 124.167 142.79 123.977 142.75C123.788 142.71 123.6 142.661 123.414 142.604Z" fill="black"/>
<path d="M128.876 133.055C130.314 133.478 131.731 133.814 133.129 134.062C134.545 134.31 135.969 134.54 137.401 134.752C137.702 134.798 137.942 134.916 138.123 135.105C138.304 135.312 138.398 135.548 138.405 135.812C138.412 136.111 138.312 136.36 138.105 136.559C137.899 136.776 137.602 136.888 137.215 136.898C135.359 136.661 133.492 136.327 131.614 135.896C129.754 135.465 127.99 135.041 126.324 134.623C125.934 134.526 125.605 134.42 125.338 134.303C125.089 134.186 124.915 133.925 124.817 133.523L124.815 133.443C124.826 133.143 124.865 132.958 124.934 132.885L125.114 132.696C125.547 132.368 125.955 132.13 126.339 131.979C126.741 131.829 127.143 131.678 127.544 131.527C128.084 131.268 128.685 130.954 129.345 130.585C130.024 130.234 130.73 129.909 131.463 129.609L131.96 129.412C131.266 129.112 130.598 128.846 129.959 128.615C129.319 128.384 128.688 128.161 128.066 127.947C127.445 127.75 126.823 127.545 126.201 127.331C125.579 127.117 124.948 126.877 124.307 126.61C124.038 126.423 123.856 126.154 123.759 125.804L123.757 125.725C123.785 125.407 123.893 125.131 124.081 124.898C124.251 124.664 124.486 124.527 124.785 124.484C125.783 124.231 126.764 124.014 127.729 123.832C128.711 123.65 129.675 123.433 130.621 123.181C132.107 122.722 133.568 122.299 135.004 121.912C136.439 121.525 137.956 121.207 139.553 120.957C139.606 120.938 139.676 120.928 139.764 120.925C140.063 120.918 140.321 121.009 140.537 121.198C140.753 121.404 140.865 121.657 140.872 121.956C140.878 122.167 140.812 122.38 140.676 122.595C140.541 122.81 140.315 122.965 140 123.061C138.421 123.31 136.922 123.628 135.504 124.015C134.104 124.401 132.651 124.815 131.146 125.256L128.387 125.904L128.918 125.997L130.356 126.464C131.209 126.743 132.044 127.032 132.861 127.329C133.679 127.627 134.515 127.933 135.368 128.247C135.439 128.28 135.554 128.304 135.713 128.318C135.89 128.349 136.059 128.398 136.219 128.464C136.397 128.548 136.55 128.659 136.676 128.797C136.803 128.952 136.879 129.179 136.904 129.478L136.905 129.531C136.794 130.01 136.466 130.326 135.924 130.48L135.423 130.518C134.789 130.569 134.098 130.753 133.348 131.071C132.598 131.388 131.857 131.723 131.126 132.076C130.706 132.227 130.305 132.377 129.921 132.527C129.555 132.695 129.206 132.871 128.876 133.055Z" fill="black"/>
<path d="M137.363 111.044C137.411 111.195 137.44 111.343 137.45 111.488C137.605 111.567 137.728 111.75 137.82 112.035C137.949 112.437 137.887 112.79 137.633 113.094L136.922 113.905C136.638 114.459 136.262 114.959 135.795 115.405C135.349 115.863 134.86 116.27 134.327 116.626C133.794 116.982 133.245 117.288 132.679 117.544C132.114 117.8 131.58 118.008 131.077 118.17C130.221 118.445 129.292 118.604 128.289 118.649C127.286 118.694 126.302 118.51 125.337 118.099C124.371 117.743 123.635 117.378 123.126 117.005C122.634 116.627 122.278 116.094 122.057 115.406C121.966 115.121 121.881 114.741 121.802 114.267C121.729 113.809 121.726 113.311 121.793 112.771C121.866 112.248 122.047 111.718 122.337 111.181C122.627 110.644 123.095 110.17 123.74 109.759C124.273 109.403 124.744 109.112 125.153 108.889C125.584 108.676 126.026 108.497 126.479 108.351C127.284 108.093 128.094 107.907 128.909 107.793C129.745 107.691 130.539 107.658 131.291 107.694C132.06 107.724 132.769 107.83 133.418 108.009C134.074 108.206 134.631 108.471 135.089 108.805C135.819 109.347 136.577 110.094 137.363 111.044ZM135.553 112.236L135.101 111.604C134.799 111.183 134.415 110.853 133.95 110.614C133.501 110.369 133.019 110.191 132.502 110.08C131.985 109.969 131.456 109.907 130.916 109.896C130.393 109.879 129.897 109.89 129.428 109.93C128.96 109.969 128.55 110.017 128.199 110.075C127.852 110.149 127.612 110.208 127.478 110.251C126.304 110.628 125.193 111.346 124.146 112.404C123.98 112.809 123.881 113.192 123.849 113.554C123.822 113.932 123.893 114.381 124.06 114.901C124.071 114.935 124.104 114.98 124.159 115.036L124.257 115.171C124.285 115.199 124.313 115.227 124.34 115.255C124.368 115.283 124.404 115.309 124.448 115.332L124.83 115.57C124.868 115.632 124.934 115.666 125.029 115.672C125.461 115.866 125.883 116.027 126.294 116.154C126.71 116.298 127.138 116.392 127.578 116.435C128.039 116.491 128.51 116.487 128.99 116.426C129.492 116.375 130.036 116.256 130.623 116.067C131.395 115.82 132.123 115.465 132.807 115.005C133.514 114.556 134.133 114.033 134.663 113.438C134.94 113.034 135.113 112.766 135.181 112.633C135.272 112.511 135.376 112.404 135.494 112.31L135.553 112.236Z" fill="black"/>
<path d="M90.3275 220.198C90.4079 220.157 90.4759 220.116 90.5315 220.073C90.5593 220.051 90.5478 219.893 90.4969 219.597C90.4568 219.316 90.4106 218.984 90.3582 218.601C90.3027 218.242 90.2418 217.877 90.1755 217.505C90.12 217.146 90.0838 216.884 90.0669 216.719C90.084 216.282 90.2317 215.955 90.5098 215.739C90.7185 215.577 90.9533 215.506 91.2144 215.526C91.4863 215.56 91.7304 215.716 91.9465 215.994C92.033 216.106 92.0963 216.201 92.1365 216.282C92.3045 217.445 92.4825 218.578 92.6706 219.682C92.8587 220.785 93.0275 221.892 93.1769 223.003C93.3125 224.124 93.411 225.241 93.4724 226.354C93.5446 227.48 93.538 228.634 93.4526 229.816C93.4417 230.003 93.3915 230.153 93.3018 230.268C93.223 230.396 93.1403 230.505 93.0537 230.594C92.8451 230.757 92.6118 230.815 92.3538 230.77C92.0819 230.736 91.8456 230.619 91.6448 230.418C91.5676 230.232 91.5352 230.09 91.5476 229.991L91.4456 230.205C91.2648 230.345 91.0392 230.442 90.7688 230.496C90.4845 230.561 90.1926 230.487 89.8929 230.274C89.1763 229.581 88.4551 228.926 87.7292 228.308C87.0141 227.703 86.3005 227.087 85.5885 226.458C84.8734 225.853 84.1738 225.226 83.4896 224.575C82.7915 223.935 82.1205 223.23 81.4765 222.459C81.2604 222.18 81.1763 221.9 81.2243 221.617C81.2831 221.348 81.4098 221.138 81.6045 220.987C81.8132 220.825 82.0635 220.731 82.3555 220.705C82.6336 220.689 82.9054 220.824 83.171 221.108C83.9555 222.06 84.7524 222.913 85.5617 223.667C85.5679 223.618 85.6282 223.538 85.7425 223.426C86.4936 222.843 87.2717 222.294 88.0768 221.78C88.8679 221.276 89.6182 220.749 90.3275 220.198ZM90.8945 222.434C90.3722 222.795 89.761 223.215 89.061 223.692C88.361 224.169 87.7328 224.624 87.1764 225.056L87.1556 225.072L87.2575 225.16C87.4073 225.267 87.6128 225.431 87.8738 225.652C88.1348 225.873 88.419 226.109 88.7263 226.361C89.0198 226.624 89.3256 226.888 89.6437 227.154C89.9588 227.445 90.2468 227.701 90.5079 227.922C90.7689 228.143 90.9851 228.32 91.1565 228.455C91.3141 228.6 91.3928 228.673 91.3928 228.673C91.4315 228.464 91.4487 228.127 91.4442 227.662C91.4443 227.261 91.4082 226.698 91.3359 225.973C91.2743 225.262 91.1541 224.318 90.9753 223.141L90.8945 222.434Z" fill="black"/>
<path d="M99.0246 207.318C98.8264 207.093 98.749 206.833 98.7924 206.536C98.8225 206.251 98.9301 206.027 99.1149 205.863C99.2998 205.7 99.5429 205.603 99.8443 205.572C100.121 205.539 100.395 205.649 100.666 205.903C101.447 206.788 102.216 207.672 102.973 208.555C103.716 209.45 104.478 210.339 105.259 211.224C105.481 211.475 105.85 211.854 106.368 212.36C106.884 212.891 107.404 213.454 107.929 214.048C108.489 214.682 109.017 215.32 109.514 215.962C109.997 216.616 110.345 217.249 110.557 217.861L110.613 218.164L110.552 218.535C110.312 218.982 110.001 219.374 109.618 219.712C109.077 220.19 108.443 220.644 107.718 221.073C107.004 221.516 106.26 221.831 105.487 222.021C104.714 222.21 103.946 222.218 103.183 222.046C102.419 221.899 101.716 221.462 101.075 220.736C100.771 220.393 100.544 220.029 100.393 219.645C100.229 219.273 100.122 218.898 100.07 218.521C100.006 218.155 99.9906 217.792 100.025 217.432C100.047 217.084 100.098 216.769 100.178 216.487C100.339 215.898 100.587 215.327 100.92 214.774C101.266 214.233 101.614 213.656 101.964 213.041L102.132 212.752C102.17 212.742 102.189 212.737 102.189 212.737C101.674 212.792 101.167 212.817 100.668 212.811C100.168 212.83 99.6672 212.849 99.1669 212.868C98.6533 212.898 98.139 212.941 97.6239 212.996C97.1072 213.077 96.5758 213.193 96.0297 213.347C95.5689 213.331 95.222 213.191 94.9888 212.926C94.7905 212.702 94.7065 212.447 94.7367 212.162C94.7653 211.902 94.8853 211.678 95.0965 211.492C95.255 211.352 95.4806 211.235 95.7735 211.141C96.0664 211.047 96.3833 210.966 96.7244 210.9C97.0771 210.847 97.4423 210.795 97.8199 210.744C98.1842 210.704 98.5237 210.662 98.8384 210.62C99.3799 210.541 99.9008 210.492 100.401 210.473C100.888 210.466 101.343 210.476 101.766 210.502L101.399 210.086C101.014 209.65 100.631 209.19 100.249 208.704C99.8657 208.244 99.4576 207.781 99.0246 207.318ZM104.335 213.45C104.338 213.401 104.339 213.376 104.339 213.376C104.353 213.364 104.331 213.407 104.275 213.503C104.055 213.839 103.768 214.233 103.416 214.685C103.062 215.162 102.756 215.655 102.5 216.163C102.256 216.685 102.117 217.206 102.085 217.729C102.051 218.276 102.25 218.793 102.681 219.282C103.031 219.678 103.384 219.918 103.741 220.003C104.084 220.099 104.434 220.096 104.79 219.993C105.144 219.915 105.496 219.769 105.847 219.553C106.209 219.351 106.571 219.149 106.932 218.947C107.139 218.835 107.36 218.699 107.594 218.539C107.841 218.392 108.036 218.254 108.181 218.126C108.234 218.079 108.198 217.958 108.073 217.763C107.959 217.582 107.81 217.373 107.625 217.136C107.427 216.912 107.229 216.688 107.03 216.463C106.844 216.252 106.704 216.093 106.611 215.988C106.179 215.499 105.771 215.037 105.386 214.601C104.988 214.177 104.638 213.794 104.335 213.45Z" fill="black"/>
<path d="M110.465 195.272C110.528 195.209 110.579 195.147 110.618 195.088C110.637 195.059 110.575 194.913 110.432 194.65C110.304 194.396 110.153 194.097 109.981 193.751C109.813 193.429 109.638 193.103 109.455 192.771C109.288 192.45 109.169 192.213 109.1 192.062C108.976 191.643 109.01 191.286 109.204 190.992C109.35 190.771 109.549 190.628 109.803 190.564C110.072 190.509 110.353 190.578 110.647 190.772C110.765 190.849 110.855 190.92 110.919 190.983C111.452 192.031 111.985 193.047 112.518 194.031C113.05 195.015 113.566 196.009 114.065 197.013C114.553 198.031 115.006 199.058 115.421 200.091C115.852 201.134 116.216 202.229 116.515 203.376C116.565 203.557 116.566 203.715 116.518 203.852C116.484 203.999 116.441 204.129 116.388 204.241C116.243 204.462 116.04 204.592 115.782 204.633C115.513 204.688 115.252 204.653 114.997 204.527C114.864 204.376 114.788 204.252 114.768 204.154L114.74 204.389C114.614 204.58 114.431 204.745 114.193 204.883C113.944 205.036 113.644 205.059 113.292 204.953C112.391 204.528 111.497 204.139 110.611 203.787C109.74 203.445 108.866 203.09 107.989 202.723C107.118 202.381 106.254 202.012 105.397 201.615C104.53 201.234 103.668 200.781 102.81 200.258C102.516 200.064 102.346 199.826 102.301 199.543C102.27 199.269 102.323 199.03 102.458 198.824C102.604 198.603 102.811 198.433 103.079 198.315C103.337 198.211 103.638 198.251 103.981 198.435C105.03 199.084 106.058 199.636 107.067 200.09C107.057 200.041 107.088 199.946 107.161 199.804C107.684 199.009 108.245 198.24 108.842 197.494C109.429 196.763 109.97 196.022 110.465 195.272ZM111.721 197.208C111.342 197.718 110.898 198.312 110.389 198.988C109.879 199.665 109.43 200.298 109.042 200.886L109.028 200.908L109.153 200.959C109.329 201.011 109.576 201.101 109.894 201.226C110.212 201.351 110.558 201.484 110.93 201.624C111.292 201.778 111.666 201.93 112.053 202.08C112.445 202.254 112.8 202.403 113.118 202.529C113.436 202.654 113.698 202.753 113.904 202.825C114.1 202.912 114.198 202.955 114.198 202.955C114.167 202.746 114.075 202.421 113.921 201.982C113.792 201.602 113.577 201.08 113.276 200.417C112.989 199.764 112.572 198.909 112.024 197.851L111.721 197.208Z" fill="black"/>
<path d="M122.15 192.806C121.862 192.836 121.614 192.785 121.404 192.656C121.149 192.498 121.007 192.276 120.978 191.988C120.963 191.71 121.04 191.436 121.206 191.167C121.29 191.032 121.415 190.913 121.583 190.809C121.756 190.73 121.941 190.648 122.139 190.563C122.342 190.502 122.55 190.434 122.762 190.358C122.981 190.307 123.164 190.244 123.313 190.17C123.469 190.018 123.602 189.904 123.712 189.827C123.837 189.759 123.988 189.614 124.166 189.393C124.443 188.778 124.538 188.122 124.451 187.426C124.378 186.739 124.171 186.052 123.83 185.365C123.494 184.701 123.057 184.069 122.518 183.466C121.97 182.879 121.374 182.386 120.73 181.988C120.205 181.664 119.669 181.426 119.121 181.273C118.588 181.13 118.054 181.09 117.519 181.152C116.998 181.224 116.508 181.397 116.048 181.672C115.594 181.971 115.191 182.406 114.839 182.975C114.45 183.604 114.207 184.282 114.109 185.009C114.012 185.736 114.125 186.375 114.447 186.926C114.643 187.379 114.649 187.755 114.463 188.055C114.334 188.264 114.134 188.42 113.864 188.523C113.599 188.649 113.332 188.629 113.062 188.462C112.837 188.323 112.657 188.129 112.522 187.879C112.401 187.639 112.306 187.373 112.238 187.083C112.184 186.801 112.147 186.509 112.127 186.206C112.122 185.913 112.122 185.644 112.128 185.4C112.097 184.78 112.167 184.181 112.338 183.603C112.509 183.026 112.742 182.497 113.039 182.018C113.474 181.313 113.999 180.716 114.612 180.226C115.241 179.745 115.921 179.399 116.652 179.188C117.374 178.992 118.145 178.951 118.965 179.064C119.785 179.178 120.615 179.494 121.454 180.013C123.027 180.985 124.25 182.156 125.123 183.524C126.002 184.916 126.508 186.409 126.641 188.003C126.684 188.402 126.644 188.802 126.521 189.202C126.413 189.612 126.243 190.004 126.011 190.378C125.752 190.798 125.485 191.13 125.21 191.374C124.935 191.618 124.636 191.816 124.314 191.969C123.997 192.146 123.66 192.29 123.302 192.4C122.944 192.51 122.56 192.645 122.15 192.806Z" fill="black"/>
<path d="M25.662 251.417C25.5695 251.133 25.6021 250.863 25.7601 250.608C25.9012 250.358 26.0891 250.195 26.3236 250.119C26.5581 250.043 26.8199 250.05 27.1089 250.142C27.3756 250.222 27.5829 250.432 27.7308 250.773C28.0954 251.895 28.449 253.012 28.7915 254.123C29.1173 255.24 29.4625 256.359 29.8272 257.482C29.9306 257.8 30.119 258.295 30.3925 258.965C30.6546 259.658 30.9081 260.381 31.153 261.135C31.4143 261.939 31.645 262.735 31.8451 263.522C32.0285 264.314 32.0955 265.033 32.046 265.679L31.9769 265.979L31.7739 266.295C31.376 266.61 30.9342 266.846 30.4483 267.004C29.7615 267.227 28.9998 267.391 28.1635 267.496C27.3325 267.618 26.5249 267.612 25.7404 267.478C24.956 267.344 24.248 267.046 23.6165 266.584C22.9737 266.145 22.5026 265.464 22.2032 264.543C22.0617 264.107 21.998 263.684 22.0123 263.272C22.0098 262.865 22.0601 262.478 22.1632 262.111C22.2495 261.75 22.3802 261.411 22.5553 261.095C22.7136 260.784 22.8856 260.515 23.0711 260.288C23.4535 259.812 23.908 259.387 24.4344 259.012C24.9664 258.654 25.5153 258.262 26.0811 257.838L26.35 257.639C26.3889 257.645 26.4084 257.648 26.4084 257.648C25.9138 257.494 25.4389 257.315 24.9837 257.111C24.5171 256.929 24.0506 256.747 23.584 256.565C23.1008 256.389 22.6118 256.224 22.1172 256.07C21.6113 255.938 21.0773 255.833 20.5153 255.757C20.099 255.559 19.8364 255.292 19.7276 254.957C19.635 254.672 19.6593 254.405 19.8005 254.155C19.9303 253.928 20.1293 253.771 20.3973 253.684C20.5984 253.618 20.852 253.601 21.1581 253.631C21.4643 253.661 21.787 253.714 22.1262 253.789C22.4709 253.88 22.8266 253.978 23.1935 254.081C23.5436 254.189 23.8715 254.286 24.1773 254.372C24.7054 254.516 25.2027 254.678 25.6692 254.86C26.119 255.047 26.5326 255.237 26.9099 255.429L26.7385 254.902C26.5588 254.349 26.3905 253.774 26.2335 253.176C26.0652 252.601 25.8747 252.015 25.662 251.417ZM28.0932 259.157C28.1158 259.112 28.1271 259.09 28.1271 259.09C28.1438 259.085 28.1074 259.115 28.0178 259.181C27.6819 259.401 27.2622 259.649 26.7588 259.924C26.244 260.22 25.768 260.551 25.3308 260.915C24.8989 261.296 24.5643 261.72 24.3268 262.186C24.0779 262.674 24.0542 263.229 24.2556 263.848C24.4189 264.351 24.6474 264.712 24.9409 264.931C25.2177 265.156 25.5398 265.293 25.9071 265.34C26.2631 265.409 26.6446 265.415 27.0517 265.357C27.4642 265.316 27.8768 265.274 28.2893 265.233C28.5234 265.212 28.7799 265.175 29.0589 265.122C29.3432 265.085 29.5776 265.036 29.7619 264.977C29.8289 264.955 29.8437 264.83 29.8065 264.601C29.7747 264.389 29.7209 264.138 29.6451 263.848C29.5526 263.563 29.46 263.278 29.3675 262.993C29.2804 262.725 29.2151 262.524 29.1715 262.39C28.9702 261.77 28.7796 261.184 28.6 260.631C28.4036 260.084 28.2347 259.592 28.0932 259.157Z" fill="black"/>
<path d="M43.7555 250.957C43.8447 250.946 43.9229 250.93 43.9899 250.908C44.0234 250.898 44.0663 250.745 44.1187 250.45C44.1765 250.172 44.2458 249.844 44.3267 249.465C44.3963 249.109 44.4631 248.745 44.5272 248.372C44.5968 248.016 44.6516 247.758 44.6919 247.597C44.8565 247.191 45.1063 246.934 45.4414 246.825C45.6927 246.743 45.9377 246.756 46.1764 246.864C46.4205 246.989 46.5971 247.218 46.7059 247.553C46.7495 247.687 46.7765 247.799 46.7869 247.888C46.5498 249.039 46.3323 250.166 46.1346 251.267C45.9368 252.369 45.7196 253.467 45.4828 254.563C45.2294 255.664 44.9426 256.748 44.6225 257.815C44.3079 258.899 43.9097 259.982 43.428 261.065C43.3543 261.237 43.2559 261.361 43.1327 261.439C43.015 261.532 42.9003 261.607 42.7884 261.661C42.5372 261.743 42.2978 261.719 42.0704 261.589C41.8262 261.465 41.6439 261.274 41.5233 261.017C41.5137 260.816 41.5315 260.672 41.5767 260.583L41.4083 260.749C41.1905 260.819 40.9453 260.834 40.6727 260.793C40.3833 260.757 40.1339 260.588 39.9245 260.286C39.4857 259.391 39.0299 258.53 38.5571 257.702C38.0898 256.891 37.6281 256.068 37.1721 255.235C36.7048 254.424 36.2599 253.596 35.8373 252.752C35.3981 251.913 35.0066 251.021 34.6628 250.077C34.5539 249.742 34.5701 249.45 34.7112 249.2C34.8578 248.967 35.0484 248.813 35.283 248.737C35.5343 248.655 35.8017 248.651 36.0852 248.726C36.352 248.806 36.562 249.025 36.7152 249.382C37.1298 250.544 37.5895 251.617 38.0945 252.602C38.1172 252.557 38.2011 252.502 38.3465 252.436C39.2511 252.142 40.1694 251.89 41.1013 251.68C42.0164 251.476 42.9011 251.234 43.7555 250.957ZM43.5292 253.253C42.9152 253.415 42.198 253.602 41.3775 253.813C40.557 254.024 39.8117 254.238 39.1416 254.456L39.1165 254.464L39.1824 254.582C39.2871 254.733 39.4247 254.957 39.5951 255.253C39.7656 255.55 39.9525 255.869 40.156 256.21C40.3428 256.557 40.5407 256.909 40.7496 257.268C40.9473 257.648 41.1313 257.986 41.3017 258.283C41.4722 258.579 41.6152 258.82 41.7308 259.005C41.8296 259.195 41.879 259.29 41.879 259.29C41.9862 259.107 42.1167 258.796 42.2704 258.357C42.407 257.979 42.5643 257.437 42.7424 256.731C42.9259 256.042 43.1335 255.113 43.3652 253.945L43.5292 253.253Z" fill="black"/>
<path d="M56.8661 255.337C56.6278 255.173 56.4706 254.974 56.3944 254.74C56.3018 254.455 56.3372 254.194 56.5006 253.955C56.6694 253.734 56.9046 253.574 57.2061 253.476C57.3569 253.427 57.5297 253.417 57.7244 253.447C57.9078 253.498 58.1024 253.555 58.308 253.618C58.5023 253.703 58.705 253.785 58.9161 253.865C59.1159 253.967 59.2964 254.038 59.4576 254.078C59.675 254.063 59.8504 254.062 59.984 254.074C60.1231 254.103 60.3321 254.09 60.611 254.037C61.2204 253.746 61.7167 253.307 62.1 252.719C62.4887 252.149 62.775 251.491 62.9589 250.746C63.1315 250.023 63.207 249.257 63.1853 248.45C63.1468 247.647 63.0106 246.886 62.7765 246.165C62.586 245.579 62.331 245.051 62.0115 244.58C61.6974 244.127 61.3159 243.751 60.8669 243.452C60.4234 243.17 59.9374 242.985 59.4089 242.898C58.8691 242.832 58.2808 242.903 57.6442 243.11C56.9406 243.339 56.3168 243.699 55.7727 244.19C55.2286 244.682 54.9013 245.242 54.7906 245.871C54.6478 246.343 54.4088 246.634 54.0738 246.743C53.8392 246.819 53.5858 246.808 53.3136 246.712C53.0301 246.637 52.8393 246.449 52.7414 246.148C52.6597 245.896 52.6478 245.632 52.7056 245.353C52.7689 245.092 52.8684 244.828 53.0041 244.562C53.1453 244.312 53.3059 244.066 53.486 243.822C53.6715 243.595 53.8458 243.39 54.0087 243.208C54.3857 242.715 54.8261 242.303 55.33 241.973C55.8338 241.642 56.3538 241.39 56.8899 241.216C57.6773 240.96 58.4636 240.843 59.2489 240.866C60.0396 240.905 60.7819 241.081 61.4759 241.393C62.153 241.71 62.7678 242.177 63.3202 242.794C63.8725 243.411 64.3011 244.188 64.6059 245.126C65.1775 246.885 65.3541 248.569 65.1357 250.177C64.9061 251.808 64.3268 253.274 63.3977 254.576C63.1724 254.908 62.8834 255.188 62.5307 255.413C62.1835 255.656 61.8005 255.845 61.3817 255.981C60.9126 256.134 60.4942 256.214 60.1265 256.222C59.7588 256.231 59.4026 256.189 59.0579 256.097C58.7019 256.028 58.3518 255.919 58.0075 255.772C57.6633 255.624 57.2828 255.479 56.8661 255.337Z" fill="black"/>
<path d="M113.576 83.1495C113.311 83.2897 113.04 83.3041 112.761 83.1925C112.491 83.0965 112.298 82.9396 112.183 82.7217C112.067 82.5038 112.029 82.2446 112.07 81.9442C112.102 81.6677 112.274 81.4272 112.584 81.2228C113.627 80.67 114.666 80.1292 115.702 79.6002C116.745 79.0868 117.788 78.5537 118.831 78.0009C119.127 77.8442 119.581 77.5733 120.195 77.1884C120.832 76.8107 121.501 76.4363 122.201 76.065C122.948 75.669 123.692 75.3045 124.433 74.9717C125.182 74.6544 125.878 74.4645 126.523 74.4019L126.831 74.4182L127.177 74.5636C127.555 74.9013 127.864 75.2958 128.103 75.7472C128.442 76.3853 128.735 77.1072 128.982 77.9129C129.246 78.7104 129.379 79.507 129.382 80.3028C129.385 81.0986 129.214 81.8473 128.868 82.549C128.546 83.258 127.957 83.8394 127.101 84.2931C126.697 84.5076 126.29 84.6434 125.882 84.7004C125.482 84.773 125.092 84.7901 124.713 84.7519C124.342 84.7292 123.986 84.6589 123.644 84.5409C123.311 84.4385 123.016 84.3155 122.761 84.1719C122.226 83.8773 121.728 83.503 121.268 83.0491C120.824 82.5869 120.344 82.1137 119.828 81.6295L119.586 81.3989C119.585 81.3595 119.584 81.3398 119.584 81.3398C119.518 81.8536 119.423 82.3523 119.301 82.8359C119.202 83.3268 119.104 83.8177 119.005 84.3086C118.915 84.815 118.836 85.3252 118.77 85.8389C118.727 86.36 118.716 86.904 118.738 87.4708C118.614 87.9151 118.397 88.2197 118.086 88.3847C117.821 88.5249 117.554 88.5471 117.283 88.451C117.037 88.3624 116.848 88.1935 116.716 87.9445C116.617 87.7577 116.556 87.511 116.533 87.2042C116.51 86.8974 116.506 86.5705 116.521 86.2234C116.552 85.8681 116.587 85.5009 116.625 85.1217C116.671 84.7581 116.711 84.4184 116.743 84.1024C116.793 83.5575 116.867 83.0396 116.966 82.5487C117.072 82.0734 117.188 81.6333 117.312 81.2284L116.822 81.4883C116.309 81.7606 115.771 82.0255 115.21 82.2832C114.673 82.5481 114.128 82.8369 113.576 83.1495ZM120.78 79.4202C120.732 79.4056 120.708 79.3983 120.708 79.3983C120.7 79.3827 120.736 79.4133 120.817 79.4902C121.092 79.7831 121.408 80.1538 121.765 80.6024C122.147 81.0582 122.554 81.4701 122.989 81.838C123.438 82.1976 123.913 82.4542 124.414 82.6078C124.937 82.7687 125.487 82.6965 126.063 82.3912C126.53 82.1437 126.846 81.8564 127.012 81.5294C127.186 81.218 127.264 80.8773 127.248 80.5073C127.255 80.1447 127.194 79.7678 127.067 79.3769C126.955 78.9777 126.843 78.5785 126.731 78.1793C126.671 77.9522 126.59 77.7059 126.489 77.4404C126.404 77.1666 126.316 76.9441 126.225 76.7729C126.192 76.7107 126.066 76.7176 125.847 76.7938C125.644 76.8616 125.406 76.9579 125.133 77.0826C124.868 77.2229 124.604 77.3631 124.339 77.5034C124.09 77.6354 123.903 77.7344 123.779 77.8004C123.203 78.1057 122.658 78.3944 122.145 78.6667C121.639 78.9545 121.184 79.2057 120.78 79.4202Z" fill="black"/>
<path d="M116.797 56.9673C116.833 56.9251 116.889 56.8813 116.965 56.8361C117.252 56.6642 117.533 56.6192 117.807 56.701C118.097 56.7738 118.306 56.916 118.432 57.1276C118.55 57.3241 118.607 57.5568 118.604 57.8256C118.601 58.0945 118.481 58.3406 118.245 58.5639C117.42 59.3455 116.626 60.1286 115.864 60.9132C115.126 61.704 114.359 62.5324 113.564 63.3986C113.18 63.7517 112.77 64.1304 112.335 64.5348C111.899 64.9391 111.473 65.3586 111.055 65.7932C110.653 66.2187 110.28 66.6579 109.935 67.1107C109.605 67.5544 109.349 67.9846 109.168 68.4013C109.14 68.6641 109.203 68.924 109.357 69.1809C109.773 69.8762 110.336 70.3193 111.046 70.5104C111.756 70.7014 112.49 70.7445 113.248 70.6395C114.022 70.5255 114.768 70.3148 115.487 70.0074C116.216 69.7151 116.807 69.4333 117.26 69.1619L119.232 67.9812C119.731 67.6826 120.221 67.3689 120.702 67.0401C121.197 66.7023 121.699 66.3917 122.207 66.1082C122.506 65.9907 122.781 65.9698 123.032 66.0456C123.307 66.1275 123.507 66.2742 123.634 66.4858C123.752 66.6823 123.792 66.9043 123.756 67.152C123.743 67.4058 123.613 67.6685 123.365 67.9401C122.655 68.3653 121.961 68.8011 121.284 69.2475C120.631 69.7 119.957 70.1343 119.261 70.5505C118.46 71.03 117.57 71.4807 116.591 71.9027C115.621 72.3397 114.624 72.6287 113.599 72.7696C112.59 72.9015 111.586 72.8356 110.586 72.5717C109.611 72.3139 108.717 71.73 107.905 70.8198C107.836 70.7382 107.77 70.6445 107.706 70.5387C107.652 70.448 107.593 70.3498 107.53 70.244C107.195 69.6847 107.024 69.1408 107.015 68.6121C107.022 68.0744 107.14 67.5519 107.37 67.0446C107.6 66.5373 107.91 66.0437 108.301 65.5638C108.691 65.0839 109.11 64.6176 109.557 64.1649C110.014 63.7273 110.464 63.3139 110.909 62.9246C111.368 62.5264 111.778 62.1476 112.138 61.7885C112.909 61.019 113.673 60.2026 114.429 59.3394C115.194 58.4913 115.983 57.7006 116.797 56.9673Z" fill="black"/>
<path d="M110.131 47.2215C110.236 47.3398 110.323 47.4633 110.39 47.5919C110.564 47.6018 110.751 47.7184 110.951 47.9418C111.232 48.2573 111.318 48.6053 111.209 48.9858L110.889 50.0156C110.853 50.6373 110.713 51.2469 110.467 51.8442C110.245 52.4429 109.963 53.0133 109.621 53.5552C109.278 54.0971 108.9 54.5996 108.487 55.0627C108.074 55.5257 107.67 55.9332 107.276 56.285C106.606 56.8832 105.821 57.4062 104.922 57.8541C104.024 58.302 103.05 58.5336 102.001 58.5488C100.974 58.6152 100.153 58.5809 99.5366 58.4461C98.9337 58.2995 98.3917 57.9568 97.9109 57.418C97.7115 57.1945 97.4797 56.8819 97.2157 56.4802C96.9633 56.0915 96.7583 55.637 96.6008 55.1165C96.455 54.6092 96.4056 54.0512 96.4527 53.4426C96.4998 52.8339 96.7348 52.211 97.1578 51.5739C97.5005 51.032 97.8134 50.5757 98.0965 50.205C98.4044 49.8358 98.7358 49.4928 99.0907 49.1762C99.7216 48.6132 100.386 48.1146 101.085 47.6802C101.808 47.2472 102.52 46.8948 103.222 46.6228C103.937 46.3391 104.628 46.1475 105.294 46.0482C105.973 45.9621 106.59 45.9784 107.144 46.0973C108.031 46.2974 109.027 46.6722 110.131 47.2215ZM108.96 49.0451L108.29 48.6514C107.844 48.3889 107.359 48.2429 106.837 48.2132C106.328 48.1717 105.814 48.2049 105.297 48.3127C104.779 48.4205 104.271 48.5788 103.773 48.7875C103.287 48.9844 102.839 49.1959 102.426 49.422C102.014 49.6481 101.659 49.8587 101.361 50.0539C101.075 50.2621 100.879 50.4132 100.774 50.507C99.8541 51.328 99.13 52.4346 98.6017 53.8268C98.6142 54.2642 98.6793 54.6546 98.797 54.9981C98.9265 55.3548 99.173 55.7369 99.5365 56.1443C99.56 56.1706 99.6083 56.1983 99.6815 56.2274L99.8265 56.3105C99.8631 56.3251 99.8997 56.3396 99.9363 56.3542C99.9729 56.3687 100.016 56.3774 100.066 56.3803L100.511 56.443C100.571 56.4839 100.646 56.4881 100.735 56.4558C101.209 56.4578 101.66 56.4335 102.087 56.3829C102.526 56.3455 102.955 56.2576 103.374 56.1193C103.819 55.9824 104.248 55.7884 104.661 55.5375C105.1 55.288 105.549 54.9579 106.009 54.5474C106.613 54.0079 107.135 53.3889 107.574 52.6902C108.038 51.993 108.391 51.2646 108.634 50.5049C108.724 50.0234 108.773 49.7081 108.781 49.5589C108.815 49.411 108.866 49.2705 108.936 49.1373L108.96 49.0451Z" fill="black"/>
<path d="M90.5463 39.6639C90.688 39.5846 90.7969 39.5347 90.8729 39.514L92.113 35.1494C92.3295 34.4132 92.5833 33.6791 92.8745 32.9471C93.1774 32.2282 93.5476 31.5319 93.9851 30.8582L94.1231 30.735C94.3465 30.5356 94.6023 30.4254 94.8905 30.4044C95.2035 30.3847 95.4773 30.5064 95.7118 30.7692C95.9347 31.0189 95.9953 31.3779 95.8939 31.8463C95.2042 33.0047 94.6558 34.2024 94.2486 35.4393C93.8545 36.6645 93.5196 37.8368 93.2439 38.9565C93.6812 38.9439 94.1808 38.9349 94.7425 38.9294C95.3042 38.9239 95.9047 38.8957 96.5438 38.8447C97.183 38.7937 97.8426 38.7127 98.5226 38.6017C99.2275 38.4921 99.93 38.3137 100.63 38.0666C100.93 38.0587 101.177 38.0977 101.372 38.1836C101.58 38.2578 101.748 38.3672 101.877 38.5118C102.089 38.7483 102.161 39.002 102.096 39.2728C102.031 39.5435 101.867 39.7962 101.604 40.0307C100.353 40.5335 99.0879 40.8358 97.8096 40.9378C96.5561 41.0411 95.2931 41.0941 94.0204 41.0966C93.8214 41.0852 93.5281 41.0873 93.1405 41.1027C92.7778 41.1195 92.4347 41.1187 92.1114 41.1003L92.0107 41.2255C91.6296 41.5657 91.2996 41.8837 91.0208 42.1798C90.7419 42.4758 90.477 42.7477 90.2258 42.9954C89.9996 43.2445 89.7674 43.4871 89.5295 43.7231C89.3163 43.9605 89.0849 44.1906 88.8352 44.4134C88.6644 44.5659 88.4541 44.7535 88.2044 44.9764C87.9547 45.1992 87.7399 45.3554 87.5602 45.445L87.3081 45.5991C87.0392 45.721 86.7877 45.7566 86.5535 45.7059C86.3193 45.6551 86.1378 45.5575 86.0088 45.4129C85.8446 45.2289 85.7571 45.0119 85.7464 44.7617C85.7474 44.5247 85.804 44.2972 85.9162 44.079L86.076 43.9009C86.3389 43.6664 86.5747 43.4677 86.7836 43.3049C86.9925 43.1421 87.2021 42.9669 87.4123 42.7793C87.6752 42.5447 87.9132 42.3087 88.1263 42.0713C88.3643 41.8353 88.5964 41.5928 88.8227 41.3437C89.0606 41.1077 89.3125 40.8475 89.5782 40.5632C89.8556 40.2921 90.1783 39.9923 90.5463 39.6639Z" fill="black"/>
</svg>
