<svg width="267" height="270" viewBox="0 0 267 270" fill="none" xmlns="http://www.w3.org/2000/svg">
<path d="M185.039 27.9872C184.98 27.7296 184.963 27.4425 184.989 27.1259C185.03 26.8166 185.095 26.4982 185.183 26.171C185.27 25.8438 185.37 25.5121 185.481 25.1759C185.608 24.8469 185.728 24.534 185.841 24.2372L186.987 21.2763C187.146 20.7882 187.264 20.4162 187.339 20.1605C187.43 19.912 187.514 19.6599 187.589 19.4042C187.687 19.1396 187.808 18.8267 187.949 18.4655C188.114 18.0954 188.354 17.5563 188.669 16.8483C188.777 16.607 188.873 16.3701 188.957 16.1376C189.057 15.9123 189.158 15.6871 189.258 15.4618C189.516 14.8825 189.836 14.5528 190.219 14.4726C190.625 14.3835 191.062 14.4428 191.528 14.6507C191.802 14.7725 192.084 14.9176 192.376 15.0859C192.674 15.2382 192.976 15.3824 193.282 15.5186C193.845 15.7694 194.433 15.9442 195.044 16.0431C195.663 16.1258 196.251 16.2336 196.809 16.3664C197.131 16.5097 197.365 16.7201 197.512 16.9974C197.665 17.2586 197.688 17.51 197.581 17.7513C197.481 17.9766 197.308 18.1696 197.063 18.3304C196.825 18.4751 196.53 18.5079 196.18 18.429C195.495 18.2782 194.787 18.1364 194.056 18.0034C193.324 17.8705 192.621 17.6536 191.945 17.3526C191.768 17.2737 191.591 17.1949 191.414 17.1161C191.237 17.0372 191.091 16.9531 190.977 16.8635C190.72 17.4822 190.475 18.0767 190.24 18.647C190.005 19.2174 189.786 19.7752 189.582 20.3206L189.606 20.3313C190.886 20.7473 192.069 21.1873 193.154 21.6513C194.246 22.0993 195.396 22.5921 196.603 23.1296C197.127 23.5556 197.277 24.0181 197.055 24.5169C196.955 24.7422 196.773 24.912 196.51 25.0262C196.27 25.1316 195.995 25.1439 195.684 25.0631C195.555 25.0058 195.298 24.8911 194.911 24.7191C194.541 24.5543 194.103 24.3689 193.597 24.1628C193.099 23.9406 192.572 23.7157 192.018 23.4882C191.471 23.2445 190.957 23.0348 190.476 22.8592C190.018 22.6746 189.629 22.5303 189.309 22.4264C189.005 22.3295 188.842 22.3053 188.821 22.3535C188.498 23.0776 188.216 23.8197 187.974 24.5796C187.755 25.3306 187.524 26.0664 187.28 26.787C187.786 26.8196 188.322 26.8942 188.887 27.0109C189.459 27.1115 190.033 27.2515 190.609 27.4308C191.201 27.6173 191.793 27.8234 192.387 28.0492C192.981 28.275 193.551 28.5098 194.098 28.7534C194.363 29.0255 194.52 29.2787 194.57 29.513C194.643 29.7384 194.633 29.9557 194.54 30.1649C194.439 30.3902 194.258 30.56 193.995 30.6742C193.755 30.7796 193.48 30.7919 193.168 30.7112C192.428 30.3815 191.631 30.0938 190.776 29.8481C189.928 29.5863 189.126 29.3738 188.37 29.2104C187.637 29.0381 187.007 28.8928 186.482 28.7743C185.949 28.672 185.634 28.5993 185.538 28.5563C185.457 28.5205 185.375 28.4453 185.291 28.3307C185.216 28.2395 185.132 28.1249 185.039 27.9872Z" fill="black"/>
<path d="M175.723 12.3186C176.103 13.4817 176.386 14.7142 176.574 16.0161C176.766 17.3007 177.002 18.5861 177.283 19.8721C177.282 19.9619 177.263 20.0929 177.225 20.2651C177.155 20.5923 177.011 20.8406 176.794 21.0101C176.574 21.1968 176.3 21.2549 175.973 21.1843C175.766 21.1397 175.581 21.0368 175.418 20.8754C175.255 20.714 175.158 20.4949 175.127 20.218C175.001 19.6322 174.886 19.0397 174.781 18.4404C174.693 17.8448 174.603 17.2579 174.512 16.6795C174.424 16.084 174.324 15.5037 174.212 14.9389C174.099 14.374 173.962 13.8399 173.8 13.3365C173.003 13.7771 172.089 14.2108 171.06 14.6376L170.971 14.6725C170.813 15.3231 170.658 16.0014 170.505 16.7074C170.357 17.3962 170.199 18.128 170.032 18.9028C169.973 19.1784 169.817 19.3971 169.566 19.5592C169.315 19.7213 169.069 19.7763 168.828 19.7243C168.587 19.6723 168.355 19.5324 168.134 19.3045C167.93 19.0803 167.867 18.7874 167.945 18.4258C168.228 17.1172 168.505 15.8706 168.779 14.6862C169.052 13.5018 169.322 12.3346 169.588 11.1847C169.871 10.0384 170.148 8.88172 170.418 7.71454C170.708 6.53385 170.997 5.28058 171.283 3.95471C171.422 3.6424 171.603 3.42919 171.826 3.31507C172.066 3.20466 172.31 3.15824 172.559 3.17579C172.783 3.22407 172.971 3.35473 173.123 3.56777C173.279 3.7636 173.365 4.03437 173.38 4.3801C173.102 5.67153 172.824 6.91805 172.547 8.11967C172.273 9.30407 171.997 10.4608 171.717 11.5898L171.617 12.0547C172.745 11.5051 173.927 10.8681 175.165 10.1439C176.402 9.41967 177.615 8.60007 178.803 7.68509C178.936 7.56962 179.067 7.50766 179.195 7.49922C179.34 7.49449 179.475 7.49652 179.599 7.5053C179.875 7.56472 180.099 7.69419 180.272 7.89373C180.463 8.09698 180.521 8.3708 180.446 8.71518C180.428 8.80127 180.399 8.89412 180.359 8.99372C180.323 9.0761 180.279 9.15663 180.226 9.23529C179.492 9.79779 178.757 10.324 178.02 10.8139C177.301 11.3075 176.579 11.7734 175.854 12.2117L175.723 12.3186Z" fill="black"/>
<path d="M151.282 10.5304C151.194 10.5128 151.115 10.504 151.044 10.504C151.009 10.504 150.921 10.6361 150.78 10.9004C150.639 11.147 150.472 11.4376 150.278 11.7723C150.102 12.0894 149.926 12.4152 149.75 12.7499C149.574 13.067 149.441 13.296 149.353 13.4369C149.071 13.7716 148.754 13.9389 148.402 13.9389C148.138 13.9389 147.909 13.8509 147.715 13.6747C147.521 13.4809 147.424 13.2079 147.424 12.8556C147.424 12.7147 147.433 12.6002 147.451 12.5121C148.032 11.4905 148.587 10.4864 149.116 9.49996C149.644 8.51352 150.19 7.53589 150.754 6.56707C151.335 5.59825 151.943 4.65584 152.577 3.73987C153.211 2.80627 153.924 1.8991 154.717 1.01835C154.84 0.877432 154.973 0.789357 155.113 0.754127C155.254 0.701282 155.386 0.666052 155.51 0.648438C155.774 0.648438 155.994 0.74532 156.17 0.939085C156.364 1.13285 156.479 1.37065 156.514 1.65249C156.461 1.84626 156.399 1.97837 156.329 2.04883L156.54 1.94314C156.769 1.94314 157.007 2.00479 157.254 2.1281C157.518 2.2514 157.703 2.4892 157.809 2.8415C157.949 3.82794 158.117 4.78796 158.311 5.72155C158.504 6.63753 158.689 7.56232 158.865 8.49591C159.059 9.41189 159.227 10.3367 159.367 11.2703C159.526 12.2039 159.623 13.1727 159.658 14.1767C159.658 14.529 159.552 14.8021 159.341 14.9958C159.13 15.172 158.901 15.2601 158.654 15.2601C158.39 15.2601 158.134 15.1808 157.888 15.0223C157.659 14.8637 157.527 14.5907 157.491 14.2032C157.456 12.9701 157.351 11.8075 157.174 10.7154C157.139 10.7506 157.042 10.777 156.884 10.7947C155.933 10.7947 154.981 10.7506 154.03 10.6626C153.097 10.5745 152.181 10.5304 151.282 10.5304ZM152.207 8.41664C152.841 8.45187 153.581 8.49591 154.426 8.54875C155.272 8.6016 156.047 8.62802 156.752 8.62802H156.778L156.752 8.49591C156.699 8.31976 156.637 8.06434 156.567 7.72966C156.496 7.39497 156.417 7.03387 156.329 6.64634C156.258 6.25881 156.179 5.86247 156.091 5.45733C156.021 5.03457 155.95 4.65584 155.88 4.32116C155.809 3.98648 155.748 3.71344 155.695 3.50206C155.66 3.29068 155.642 3.18499 155.642 3.18499C155.483 3.32591 155.263 3.58133 154.981 3.95125C154.735 4.26831 154.418 4.73511 154.03 5.35164C153.643 5.95054 153.158 6.76964 152.577 7.80892L152.207 8.41664Z" fill="black"/>
<path d="M134.827 1.45324L135.488 0.475604C135.752 0.24661 135.937 0.114497 136.043 0.0792674C136.166 0.0264225 136.316 0 136.492 0H136.677L137.047 0.10569L137.284 0.31707C137.461 0.475604 137.61 0.731022 137.734 1.08332C137.857 1.41801 137.963 1.77911 138.051 2.16664C138.139 2.55417 138.209 2.93289 138.262 3.30281C138.315 3.65511 138.368 3.93695 138.421 4.14833C138.544 4.72962 138.641 5.22284 138.711 5.62798C138.782 6.03313 138.843 6.41185 138.896 6.76415C138.949 7.11645 139.002 7.49517 139.055 7.90032C139.125 8.30546 139.222 8.79868 139.345 9.37997C139.486 10.1022 139.61 10.798 139.715 11.4673C139.839 12.1191 139.9 12.7973 139.9 13.5019C139.9 14.136 139.786 14.5588 139.557 14.7702C139.328 14.9815 139.037 15.0872 138.685 15.0872C138.421 15.052 138.2 14.9463 138.024 14.7702C137.848 14.594 137.751 14.3474 137.734 14.0303C137.751 13.8894 137.76 13.7573 137.76 13.634C137.778 13.5107 137.786 13.3786 137.786 13.2377C137.786 12.5507 137.707 11.8901 137.549 11.256C137.408 10.6042 137.267 9.92604 137.126 9.22144C136.879 7.95316 136.685 6.86103 136.545 5.94505C136.421 5.02908 136.254 4.16594 136.043 3.35565L135.91 3.54061C135.576 4.03383 135.241 4.55347 134.906 5.09954C134.572 5.62798 134.246 6.15643 133.929 6.68488C133.629 7.21333 133.339 7.71536 133.057 8.19096C132.793 8.66657 132.555 9.08933 132.343 9.45924C132.026 9.82916 131.718 10.0141 131.419 10.0141C131.137 10.0141 130.864 9.87319 130.599 9.59135C130.353 9.2919 130.115 8.92199 129.886 8.48161C129.657 8.04124 129.446 7.57444 129.252 7.08122C129.076 6.57039 128.917 6.1124 128.776 5.70725L127.957 3.77841C127.816 4.44778 127.702 5.17 127.614 5.94505C127.543 6.7025 127.49 7.49517 127.455 8.32308C127.42 9.13337 127.394 9.96127 127.376 10.8068C127.376 11.6523 127.376 12.489 127.376 13.3169C127.376 13.634 127.261 13.8894 127.032 14.0832C126.803 14.2769 126.566 14.3738 126.319 14.3738C126.002 14.3738 125.764 14.2946 125.606 14.136C125.465 13.9775 125.368 13.7573 125.315 13.4755C125.262 13.1936 125.236 12.8765 125.236 12.5242C125.236 12.1543 125.236 11.7668 125.236 11.3617C125.236 10.1462 125.262 8.9396 125.315 7.74178C125.368 6.54396 125.518 5.33734 125.764 4.1219C125.835 3.89291 125.887 3.57584 125.923 3.1707C125.976 2.74794 126.055 2.34279 126.161 1.95526C126.284 1.56773 126.451 1.23305 126.663 0.951209C126.892 0.651754 127.209 0.502027 127.614 0.502027C127.931 0.502027 128.257 0.669369 128.591 1.00405C128.926 1.32112 129.243 1.73508 129.543 2.24591C129.86 2.75674 130.15 3.32042 130.415 3.93695C130.696 4.55347 130.934 5.16119 131.128 5.7601C131.286 6.28855 131.427 6.55277 131.551 6.55277C131.551 6.55277 131.612 6.4647 131.736 6.28855C131.859 6.1124 132.009 5.89221 132.185 5.62798C132.361 5.34615 132.546 5.04669 132.74 4.72962C132.951 4.39494 133.145 4.06906 133.321 3.75199L134.51 1.92884C134.616 1.80554 134.721 1.647 134.827 1.45324Z" fill="black"/>
<path d="M248.65 142.604C248.392 142.46 248.217 142.27 248.122 142.034C248.025 141.815 247.996 141.611 248.036 141.421C248.098 141.128 248.237 140.897 248.453 140.726C248.687 140.56 248.979 140.495 249.331 140.534C249.803 140.688 250.28 140.816 250.762 140.918C251.848 141.148 252.956 141.274 254.085 141.297C255.211 141.337 256.358 141.445 257.528 141.62L258.277 141.779C258.536 141.834 258.827 141.904 259.151 141.991C259.474 142.077 259.788 142.171 260.091 142.271C260.394 142.371 260.671 142.466 260.922 142.555C261.187 142.665 261.391 142.762 261.535 142.847L261.777 142.979C261.881 143.001 261.968 143.055 262.04 143.143C262.125 143.251 262.191 143.364 262.238 143.482C262.282 143.617 262.308 143.748 262.317 143.876C262.343 144.008 262.347 144.117 262.329 144.203C262.278 144.444 262.142 144.659 261.922 144.846C261.229 145.402 260.481 145.955 259.681 146.505C258.894 147.077 258.098 147.602 257.295 148.08C256.488 148.575 255.692 149.019 254.907 149.411C254.121 149.803 253.41 150.103 252.772 150.31L254.419 150.82C255.142 151.063 255.896 151.286 256.682 151.488C257.463 151.708 258.275 151.915 259.115 152.111C259.261 152.106 259.385 152.114 259.488 152.136C259.833 152.209 260.08 152.36 260.229 152.59C260.379 152.82 260.423 153.081 260.361 153.374C260.31 153.615 260.224 153.804 260.105 153.941C259.983 154.095 259.843 154.201 259.687 154.258C259.528 154.332 259.358 154.368 259.178 154.366C259.016 154.368 258.857 154.352 258.702 154.32C258.426 154.261 258.156 154.177 257.891 154.067C257.64 153.978 257.402 153.909 257.178 153.862C255.753 153.452 254.355 153.039 252.984 152.623C251.631 152.211 250.231 151.851 248.783 151.545C248.459 151.459 248.206 151.297 248.022 151.06C247.834 150.84 247.777 150.558 247.85 150.213C247.89 150.024 247.989 149.855 248.146 149.709C248.299 149.579 248.468 149.462 248.652 149.357C248.836 149.252 249.017 149.164 249.194 149.093C249.367 149.04 249.492 149.003 249.568 148.984L250.618 148.746C252.254 148.247 253.795 147.6 255.241 146.808C256.701 146.037 258.034 145.184 259.239 144.251C259.005 144.166 258.763 144.078 258.512 143.989C258.274 143.921 258.035 143.861 257.793 143.81C257.138 143.672 256.476 143.568 255.807 143.498C255.134 143.445 254.461 143.393 253.788 143.341C253.132 143.292 252.469 143.233 251.8 143.163C251.126 143.11 250.454 143.013 249.782 142.871C249.592 142.831 249.403 142.791 249.213 142.751C249.024 142.71 248.836 142.662 248.65 142.604Z" fill="black"/>
<path d="M254.112 133.055C255.549 133.479 256.967 133.815 258.365 134.063C259.781 134.311 261.204 134.541 262.637 134.753C262.937 134.799 263.178 134.916 263.359 135.106C263.54 135.313 263.634 135.548 263.64 135.812C263.647 136.112 263.548 136.361 263.341 136.56C263.135 136.776 262.838 136.889 262.451 136.898C260.595 136.661 258.728 136.327 256.85 135.897C254.989 135.466 253.226 135.041 251.559 134.623C251.169 134.527 250.841 134.42 250.574 134.303C250.324 134.186 250.151 133.926 250.053 133.523L250.051 133.444C250.061 133.144 250.101 132.958 250.17 132.886L250.35 132.697C250.783 132.369 251.191 132.13 251.575 131.98C251.977 131.829 252.378 131.679 252.78 131.528C253.32 131.268 253.92 130.954 254.581 130.586C255.26 130.235 255.966 129.909 256.698 129.61L257.196 129.413C256.501 129.112 255.834 128.847 255.194 128.615C254.554 128.384 253.924 128.161 253.302 127.947C252.68 127.751 252.059 127.546 251.437 127.331C250.815 127.117 250.184 126.877 249.543 126.611C249.274 126.423 249.091 126.155 248.995 125.804L248.993 125.725C249.021 125.407 249.128 125.132 249.317 124.898C249.487 124.665 249.722 124.527 250.02 124.485C251.019 124.232 252 124.014 252.965 123.832C253.947 123.65 254.911 123.433 255.856 123.181C257.343 122.723 258.804 122.3 260.24 121.913C261.675 121.526 263.192 121.207 264.789 120.957C264.841 120.939 264.912 120.928 265 120.926C265.299 120.919 265.557 121.009 265.773 121.198C265.989 121.404 266.101 121.657 266.108 121.956C266.113 122.168 266.048 122.381 265.912 122.596C265.776 122.81 265.551 122.965 265.236 123.061C263.656 123.311 262.158 123.629 260.74 124.015C259.339 124.401 257.887 124.815 256.382 125.257L253.623 125.904L254.153 125.997L255.592 126.465C256.444 126.744 257.279 127.032 258.097 127.33C258.915 127.627 259.75 127.933 260.604 128.247C260.675 128.281 260.79 128.304 260.949 128.318C261.126 128.349 261.294 128.398 261.455 128.465C261.633 128.548 261.785 128.659 261.912 128.797C262.039 128.953 262.115 129.18 262.14 129.479L262.141 129.532C262.029 130.01 261.702 130.326 261.16 130.48L260.658 130.519C260.025 130.569 259.334 130.753 258.584 131.071C257.834 131.389 257.093 131.724 256.361 132.076C255.942 132.227 255.54 132.378 255.156 132.528C254.79 132.695 254.442 132.871 254.112 133.055Z" fill="black"/>
<path d="M262.599 111.044C262.647 111.195 262.676 111.343 262.686 111.488C262.841 111.567 262.964 111.75 263.056 112.035C263.185 112.437 263.123 112.79 262.869 113.094L262.158 113.905C261.873 114.459 261.497 114.959 261.03 115.405C260.585 115.863 260.096 116.27 259.563 116.626C259.03 116.982 258.481 117.288 257.915 117.544C257.35 117.8 256.816 118.008 256.312 118.17C255.457 118.445 254.528 118.604 253.525 118.649C252.521 118.694 251.537 118.51 250.573 118.099C249.607 117.743 248.87 117.378 248.362 117.005C247.87 116.627 247.514 116.094 247.293 115.406C247.201 115.121 247.116 114.741 247.038 114.267C246.965 113.809 246.962 113.311 247.029 112.771C247.102 112.248 247.283 111.718 247.573 111.181C247.863 110.644 248.33 110.17 248.976 109.759C249.509 109.403 249.98 109.112 250.389 108.889C250.82 108.676 251.262 108.497 251.715 108.351C252.52 108.093 253.33 107.907 254.144 107.793C254.981 107.691 255.775 107.658 256.527 107.694C257.295 107.724 258.004 107.83 258.654 108.009C259.309 108.206 259.866 108.471 260.325 108.805C261.054 109.347 261.812 110.094 262.599 111.044ZM260.789 112.236L260.336 111.604C260.035 111.183 259.651 110.853 259.186 110.614C258.737 110.369 258.254 110.191 257.738 110.08C257.221 109.969 256.692 109.907 256.152 109.896C255.628 109.879 255.133 109.89 254.664 109.93C254.196 109.969 253.786 110.017 253.434 110.075C253.088 110.149 252.848 110.208 252.714 110.251C251.54 110.628 250.429 111.346 249.381 112.404C249.215 112.809 249.116 113.192 249.085 113.554C249.058 113.932 249.129 114.381 249.296 114.901C249.306 114.935 249.339 114.98 249.394 115.036L249.493 115.171C249.521 115.199 249.548 115.227 249.576 115.255C249.603 115.283 249.639 115.309 249.684 115.332L250.065 115.57C250.104 115.632 250.17 115.666 250.265 115.672C250.697 115.866 251.119 116.027 251.53 116.154C251.946 116.298 252.374 116.392 252.813 116.435C253.275 116.491 253.746 116.487 254.226 116.426C254.728 116.375 255.272 116.256 255.859 116.067C256.63 115.82 257.359 115.465 258.043 115.005C258.75 114.556 259.368 114.033 259.899 113.438C260.176 113.034 260.349 112.766 260.417 112.633C260.508 112.511 260.612 112.404 260.73 112.31L260.789 112.236Z" fill="black"/>
<path d="M215.563 220.198C215.644 220.157 215.712 220.116 215.767 220.073C215.795 220.051 215.783 219.893 215.733 219.597C215.693 219.316 215.646 218.984 215.594 218.601C215.538 218.242 215.478 217.877 215.411 217.505C215.356 217.146 215.32 216.884 215.303 216.719C215.32 216.282 215.467 215.955 215.746 215.739C215.954 215.577 216.189 215.506 216.45 215.526C216.722 215.56 216.966 215.716 217.182 215.994C217.269 216.106 217.332 216.201 217.372 216.282C217.54 217.445 217.718 218.578 217.906 219.682C218.094 220.785 218.263 221.892 218.413 223.003C218.548 224.124 218.647 225.241 218.708 226.354C218.78 227.48 218.774 228.634 218.688 229.816C218.677 230.003 218.627 230.153 218.538 230.268C218.459 230.396 218.376 230.505 218.289 230.594C218.081 230.757 217.848 230.815 217.59 230.77C217.318 230.736 217.081 230.619 216.881 230.418C216.803 230.232 216.771 230.09 216.783 229.991L216.681 230.205C216.501 230.345 216.275 230.442 216.005 230.496C215.72 230.561 215.428 230.487 215.129 230.274C214.412 229.581 213.691 228.926 212.965 228.308C212.25 227.703 211.536 227.087 210.824 226.458C210.109 225.853 209.41 225.226 208.725 224.575C208.027 223.935 207.356 223.23 206.712 222.459C206.496 222.18 206.412 221.9 206.46 221.617C206.519 221.348 206.646 221.138 206.84 220.987C207.049 220.825 207.299 220.731 207.591 220.705C207.869 220.689 208.141 220.824 208.407 221.108C209.191 222.06 209.988 222.913 210.797 223.667C210.804 223.618 210.864 223.538 210.978 223.426C211.729 222.843 212.507 222.294 213.312 221.78C214.104 221.276 214.854 220.749 215.563 220.198ZM216.13 222.434C215.608 222.795 214.997 223.215 214.297 223.692C213.597 224.169 212.968 224.624 212.412 225.056L212.391 225.072L212.493 225.16C212.643 225.267 212.848 225.431 213.109 225.652C213.371 225.873 213.655 226.109 213.962 226.361C214.255 226.624 214.561 226.888 214.879 227.154C215.195 227.445 215.483 227.701 215.744 227.922C216.005 228.143 216.221 228.32 216.392 228.455C216.55 228.6 216.629 228.673 216.629 228.673C216.667 228.464 216.684 228.127 216.68 227.662C216.68 227.261 216.644 226.698 216.572 225.973C216.51 225.262 216.39 224.318 216.211 223.141L216.13 222.434Z" fill="black"/>
<path d="M224.26 207.318C224.062 207.093 223.985 206.833 224.028 206.536C224.058 206.251 224.166 206.027 224.351 205.863C224.535 205.7 224.779 205.603 225.08 205.572C225.357 205.539 225.631 205.649 225.902 205.903C226.683 206.788 227.452 207.672 228.208 208.555C228.951 209.45 229.714 210.339 230.495 211.224C230.716 211.475 231.086 211.854 231.604 212.36C232.12 212.891 232.64 213.454 233.165 214.048C233.725 214.682 234.253 215.32 234.75 215.962C235.233 216.616 235.581 217.249 235.792 217.861L235.848 218.164L235.788 218.535C235.548 218.982 235.237 219.374 234.854 219.712C234.312 220.19 233.679 220.644 232.953 221.073C232.24 221.516 231.496 221.831 230.723 222.021C229.95 222.21 229.182 222.218 228.419 222.046C227.655 221.899 226.952 221.462 226.31 220.736C226.007 220.393 225.78 220.029 225.629 219.645C225.465 219.273 225.357 218.898 225.306 218.521C225.241 218.155 225.226 217.792 225.261 217.432C225.283 217.084 225.333 216.769 225.413 216.487C225.575 215.898 225.822 215.327 226.156 214.774C226.502 214.233 226.85 213.656 227.2 213.041L227.367 212.752C227.405 212.742 227.425 212.737 227.425 212.737C226.909 212.792 226.402 212.817 225.904 212.811C225.403 212.83 224.903 212.849 224.403 212.868C223.889 212.898 223.375 212.941 222.86 212.996C222.343 213.077 221.812 213.193 221.265 213.347C220.805 213.331 220.458 213.191 220.224 212.926C220.026 212.702 219.942 212.447 219.972 212.162C220.001 211.902 220.121 211.678 220.332 211.492C220.491 211.352 220.716 211.235 221.009 211.141C221.302 211.047 221.619 210.966 221.96 210.9C222.313 210.847 222.678 210.795 223.056 210.744C223.42 210.704 223.759 210.662 224.074 210.62C224.616 210.541 225.137 210.492 225.637 210.473C226.124 210.466 226.579 210.476 227.002 210.502L226.634 210.086C226.25 209.65 225.866 209.19 225.485 208.704C225.101 208.244 224.693 207.781 224.26 207.318ZM229.57 213.45C229.573 213.401 229.575 213.376 229.575 213.376C229.588 213.364 229.567 213.407 229.511 213.503C229.29 213.839 229.004 214.233 228.651 214.685C228.297 215.162 227.992 215.655 227.736 216.163C227.491 216.685 227.353 217.206 227.321 217.729C227.287 218.276 227.485 218.793 227.917 219.282C228.267 219.678 228.62 219.918 228.977 220.003C229.32 220.099 229.67 220.096 230.025 219.993C230.38 219.915 230.732 219.769 231.082 219.553C231.444 219.351 231.806 219.149 232.168 218.947C232.375 218.835 232.595 218.699 232.83 218.539C233.076 218.392 233.272 218.254 233.417 218.126C233.47 218.079 233.434 217.958 233.309 217.763C233.195 217.582 233.046 217.373 232.861 217.136C232.663 216.912 232.464 216.688 232.266 216.463C232.08 216.252 231.94 216.093 231.846 215.988C231.415 215.499 231.007 215.037 230.622 214.601C230.224 214.177 229.874 213.794 229.57 213.45Z" fill="black"/>
<path d="M235.701 195.272C235.764 195.209 235.815 195.147 235.853 195.088C235.873 195.059 235.811 194.913 235.668 194.65C235.54 194.396 235.389 194.097 235.216 193.751C235.049 193.429 234.874 193.103 234.691 192.771C234.523 192.45 234.405 192.213 234.336 192.062C234.211 191.643 234.246 191.286 234.44 190.992C234.586 190.771 234.785 190.628 235.039 190.564C235.307 190.509 235.589 190.578 235.883 190.772C236 190.849 236.091 190.92 236.155 190.983C236.688 192.031 237.221 193.047 237.753 194.031C238.286 195.015 238.802 196.009 239.3 197.013C239.789 198.031 240.241 199.058 240.657 200.091C241.088 201.134 241.452 202.229 241.751 203.376C241.801 203.557 241.802 203.715 241.754 203.852C241.72 203.999 241.677 204.129 241.624 204.241C241.478 204.462 241.276 204.592 241.017 204.633C240.749 204.688 240.487 204.653 240.233 204.527C240.1 204.376 240.024 204.252 240.004 204.154L239.976 204.389C239.85 204.58 239.667 204.745 239.428 204.883C239.18 205.036 238.88 205.059 238.527 204.953C237.626 204.528 236.733 204.139 235.847 203.787C234.975 203.445 234.101 203.09 233.225 202.723C232.354 202.381 231.489 202.012 230.632 201.615C229.766 201.234 228.904 200.781 228.046 200.258C227.752 200.064 227.582 199.826 227.537 199.543C227.506 199.269 227.558 199.03 227.694 198.824C227.84 198.603 228.046 198.433 228.314 198.315C228.573 198.211 228.873 198.251 229.216 198.435C230.265 199.084 231.294 199.636 232.303 200.09C232.293 200.041 232.324 199.946 232.397 199.804C232.92 199.009 233.481 198.24 234.078 197.494C234.665 196.763 235.206 196.022 235.701 195.272ZM236.956 197.208C236.578 197.718 236.134 198.312 235.624 198.988C235.115 199.665 234.666 200.298 234.278 200.886L234.264 200.908L234.388 200.959C234.565 201.011 234.812 201.101 235.13 201.226C235.448 201.351 235.793 201.484 236.165 201.624C236.528 201.778 236.902 201.93 237.289 202.08C237.681 202.254 238.036 202.403 238.354 202.529C238.672 202.654 238.934 202.753 239.139 202.825C239.335 202.912 239.433 202.955 239.433 202.955C239.403 202.746 239.311 202.421 239.157 201.982C239.028 201.602 238.813 201.08 238.512 200.417C238.225 199.764 237.808 198.909 237.26 197.851L236.956 197.208Z" fill="black"/>
<path d="M247.386 192.806C247.098 192.836 246.85 192.785 246.64 192.656C246.385 192.498 246.243 192.276 246.214 191.988C246.199 191.71 246.275 191.436 246.442 191.167C246.525 191.032 246.651 190.913 246.818 190.809C246.992 190.73 247.177 190.648 247.374 190.563C247.578 190.502 247.786 190.434 247.998 190.358C248.216 190.307 248.4 190.244 248.549 190.17C248.705 190.018 248.838 189.904 248.948 189.827C249.072 189.759 249.224 189.614 249.402 189.393C249.679 188.778 249.774 188.122 249.687 187.426C249.614 186.739 249.407 186.052 249.066 185.365C248.73 184.701 248.293 184.069 247.754 183.466C247.206 182.879 246.61 182.386 245.965 181.988C245.441 181.664 244.905 181.426 244.357 181.273C243.824 181.13 243.29 181.09 242.754 181.152C242.234 181.224 241.744 181.397 241.284 181.672C240.83 181.971 240.427 182.406 240.075 182.975C239.686 183.604 239.442 184.282 239.345 185.009C239.248 185.736 239.36 186.375 239.682 186.926C239.879 187.379 239.884 187.755 239.699 188.055C239.569 188.264 239.369 188.42 239.099 188.523C238.835 188.649 238.568 188.629 238.298 188.462C238.073 188.323 237.893 188.129 237.757 187.879C237.637 187.639 237.542 187.373 237.473 187.083C237.42 186.801 237.383 186.509 237.363 186.206C237.357 185.913 237.358 185.644 237.364 185.4C237.333 184.78 237.403 184.181 237.574 183.603C237.745 183.026 237.978 182.497 238.275 182.018C238.71 181.313 239.234 180.716 239.848 180.226C240.477 179.745 241.157 179.399 241.888 179.188C242.609 178.992 243.38 178.951 244.201 179.064C245.021 179.178 245.85 179.494 246.69 180.013C248.263 180.985 249.486 182.156 250.359 183.524C251.238 184.916 251.744 186.409 251.877 188.003C251.92 188.402 251.88 188.802 251.757 189.202C251.649 189.612 251.479 190.004 251.247 190.378C250.988 190.798 250.721 191.13 250.445 191.374C250.17 191.618 249.872 191.816 249.549 191.969C249.233 192.146 248.895 192.29 248.537 192.4C248.18 192.51 247.796 192.645 247.386 192.806Z" fill="black"/>
<path d="M150.898 251.417C150.805 251.133 150.838 250.863 150.996 250.608C151.137 250.358 151.325 250.195 151.559 250.119C151.794 250.043 152.056 250.05 152.345 250.142C152.611 250.222 152.819 250.432 152.967 250.773C153.331 251.895 153.685 253.012 154.027 254.123C154.353 255.24 154.698 256.359 155.063 257.482C155.166 257.8 155.355 258.295 155.628 258.965C155.89 259.658 156.144 260.381 156.389 261.135C156.65 261.939 156.881 262.735 157.081 263.522C157.264 264.314 157.331 265.033 157.282 265.679L157.213 265.979L157.01 266.295C156.612 266.61 156.17 266.846 155.684 267.004C154.997 267.227 154.236 267.391 153.399 267.496C152.568 267.618 151.761 267.612 150.976 267.478C150.192 267.344 149.484 267.046 148.852 266.584C148.209 266.145 147.738 265.464 147.439 264.543C147.297 264.107 147.234 263.684 147.248 263.272C147.246 262.865 147.296 262.478 147.399 262.111C147.485 261.75 147.616 261.411 147.791 261.095C147.949 260.784 148.121 260.515 148.307 260.288C148.689 259.812 149.144 259.387 149.67 259.012C150.202 258.654 150.751 258.262 151.317 257.838L151.586 257.639C151.625 257.645 151.644 257.648 151.644 257.648C151.15 257.494 150.675 257.315 150.219 257.111C149.753 256.929 149.286 256.747 148.82 256.565C148.337 256.389 147.848 256.224 147.353 256.07C146.847 255.938 146.313 255.833 145.751 255.757C145.335 255.559 145.072 255.292 144.963 254.957C144.871 254.672 144.895 254.405 145.036 254.155C145.166 253.928 145.365 253.771 145.633 253.684C145.834 253.618 146.088 253.601 146.394 253.631C146.7 253.661 147.023 253.714 147.362 253.789C147.707 253.88 148.062 253.978 148.429 254.081C148.779 254.189 149.107 254.286 149.413 254.372C149.941 254.516 150.438 254.678 150.905 254.86C151.355 255.047 151.768 255.237 152.146 255.429L151.974 254.902C151.795 254.349 151.626 253.774 151.469 253.176C151.301 252.601 151.11 252.015 150.898 251.417ZM153.329 259.157C153.352 259.112 153.363 259.09 153.363 259.09C153.38 259.085 153.343 259.115 153.254 259.181C152.918 259.401 152.498 259.649 151.995 259.924C151.48 260.22 151.004 260.551 150.567 260.915C150.135 261.296 149.8 261.72 149.563 262.186C149.314 262.674 149.29 263.229 149.491 263.848C149.655 264.351 149.883 264.712 150.177 264.931C150.454 265.156 150.776 265.293 151.143 265.34C151.499 265.409 151.88 265.415 152.287 265.357C152.7 265.316 153.113 265.274 153.525 265.233C153.759 265.212 154.016 265.175 154.295 265.122C154.579 265.085 154.813 265.036 154.998 264.977C155.065 264.955 155.08 264.83 155.042 264.601C155.01 264.389 154.957 264.138 154.881 263.848C154.788 263.563 154.696 263.278 154.603 262.993C154.516 262.725 154.451 262.524 154.407 262.39C154.206 261.77 154.015 261.184 153.836 260.631C153.639 260.084 153.47 259.592 153.329 259.157Z" fill="black"/>
<path d="M168.991 250.957C169.081 250.946 169.159 250.93 169.226 250.908C169.259 250.898 169.302 250.745 169.354 250.45C169.412 250.172 169.482 249.844 169.562 249.465C169.632 249.109 169.699 248.745 169.763 248.372C169.833 248.016 169.887 247.758 169.928 247.597C170.092 247.191 170.342 246.934 170.677 246.825C170.928 246.743 171.173 246.756 171.412 246.864C171.656 246.989 171.833 247.218 171.942 247.553C171.985 247.687 172.012 247.799 172.023 247.888C171.786 249.039 171.568 250.166 171.37 251.267C171.173 252.369 170.955 253.467 170.719 254.563C170.465 255.664 170.178 256.748 169.858 257.815C169.544 258.899 169.146 259.982 168.664 261.065C168.59 261.237 168.492 261.361 168.369 261.439C168.251 261.532 168.136 261.607 168.024 261.661C167.773 261.743 167.534 261.719 167.306 261.589C167.062 261.465 166.88 261.274 166.759 261.017C166.749 260.816 166.767 260.672 166.812 260.583L166.644 260.749C166.426 260.819 166.181 260.834 165.908 260.793C165.619 260.757 165.37 260.588 165.16 260.286C164.721 259.391 164.266 258.53 163.793 257.702C163.326 256.891 162.864 256.068 162.408 255.235C161.941 254.424 161.496 253.596 161.073 252.752C160.634 251.913 160.242 251.021 159.899 250.077C159.79 249.742 159.806 249.45 159.947 249.2C160.094 248.967 160.284 248.813 160.519 248.737C160.77 248.655 161.037 248.651 161.321 248.726C161.588 248.806 161.798 249.025 161.951 249.382C162.366 250.544 162.825 251.617 163.33 252.602C163.353 252.557 163.437 252.502 163.582 252.436C164.487 252.142 165.405 251.89 166.337 251.68C167.252 251.476 168.137 251.234 168.991 250.957ZM168.765 253.253C168.151 253.415 167.434 253.602 166.613 253.813C165.793 254.024 165.048 254.238 164.377 254.456L164.352 254.464L164.418 254.582C164.523 254.733 164.66 254.957 164.831 255.253C165.001 255.55 165.188 255.869 165.392 256.21C165.579 256.557 165.776 256.909 165.985 257.268C166.183 257.648 166.367 257.986 166.538 258.283C166.708 258.579 166.851 258.82 166.967 259.005C167.065 259.195 167.115 259.29 167.115 259.29C167.222 259.107 167.352 258.796 167.506 258.357C167.643 257.979 167.8 257.437 167.978 256.731C168.162 256.042 168.369 255.113 168.601 253.945L168.765 253.253Z" fill="black"/>
<path d="M182.102 255.337C181.864 255.173 181.706 254.974 181.63 254.74C181.538 254.455 181.573 254.194 181.736 253.955C181.905 253.734 182.14 253.574 182.442 253.476C182.593 253.427 182.765 253.417 182.96 253.447C183.144 253.498 183.338 253.555 183.544 253.618C183.738 253.703 183.941 253.785 184.152 253.865C184.352 253.967 184.532 254.038 184.693 254.078C184.911 254.063 185.086 254.062 185.22 254.074C185.359 254.103 185.568 254.09 185.847 254.037C186.456 253.746 186.953 253.307 187.336 252.719C187.724 252.149 188.011 251.491 188.195 250.746C188.367 250.023 188.443 249.257 188.421 248.45C188.383 247.647 188.246 246.886 188.012 246.165C187.822 245.579 187.567 245.051 187.247 244.58C186.933 244.127 186.552 243.751 186.103 243.452C185.659 243.17 185.173 242.985 184.645 242.898C184.105 242.832 183.517 242.903 182.88 243.11C182.176 243.339 181.553 243.699 181.008 244.19C180.464 244.682 180.137 245.242 180.026 245.871C179.884 246.343 179.645 246.634 179.31 246.743C179.075 246.819 178.822 246.808 178.549 246.712C178.266 246.637 178.075 246.449 177.977 246.148C177.895 245.896 177.884 245.632 177.941 245.353C178.005 245.092 178.104 244.828 178.24 244.562C178.381 244.312 178.542 244.066 178.722 243.822C178.907 243.595 179.082 243.39 179.245 243.208C179.621 242.715 180.062 242.303 180.566 241.973C181.07 241.642 181.59 241.39 182.126 241.216C182.913 240.96 183.699 240.843 184.485 240.866C185.275 240.905 186.018 241.081 186.712 241.393C187.389 241.71 188.004 242.177 188.556 242.794C189.108 243.411 189.537 244.188 189.842 245.126C190.413 246.885 190.59 248.569 190.372 250.177C190.142 251.808 189.563 253.274 188.634 254.576C188.408 254.908 188.119 255.188 187.767 255.413C187.419 255.656 187.036 255.845 186.617 255.981C186.148 256.134 185.73 256.214 185.362 256.222C184.995 256.231 184.638 256.189 184.294 256.097C183.938 256.028 183.588 255.919 183.243 255.772C182.899 255.624 182.519 255.479 182.102 255.337Z" fill="black"/>
<path d="M238.812 83.149C238.547 83.2892 238.275 83.3036 237.997 83.192C237.727 83.096 237.534 82.9391 237.418 82.7212C237.303 82.5033 237.265 82.2442 237.305 81.9438C237.338 81.6672 237.51 81.4267 237.82 81.2223C238.863 80.6695 239.902 80.1287 240.937 79.5997C241.981 79.0863 243.024 78.5532 244.067 78.0004C244.363 77.8437 244.817 77.5728 245.431 77.1879C246.068 76.8102 246.737 76.4358 247.437 76.0645C248.184 75.6685 248.928 75.3041 249.668 74.9712C250.417 74.654 251.114 74.464 251.759 74.4014L252.066 74.4177L252.413 74.5631C252.791 74.9008 253.1 75.2953 253.339 75.7467C253.677 76.3848 253.97 77.1067 254.218 77.9124C254.481 78.7099 254.615 79.5065 254.618 80.3023C254.621 81.0981 254.45 81.8469 254.104 82.5485C253.782 83.2575 253.193 83.8389 252.337 84.2926C251.932 84.5071 251.526 84.6429 251.117 84.6999C250.717 84.7725 250.328 84.7896 249.949 84.7514C249.578 84.7287 249.221 84.6584 248.88 84.5404C248.546 84.438 248.252 84.315 247.996 84.1714C247.461 83.8768 246.964 83.5026 246.504 83.0486C246.059 82.5864 245.579 82.1132 245.064 81.629L244.822 81.3984C244.821 81.359 244.82 81.3393 244.82 81.3393C244.754 81.8531 244.659 82.3518 244.537 82.8354C244.438 83.3263 244.339 83.8172 244.241 84.3081C244.15 84.8146 244.072 85.3247 244.005 85.8385C243.963 86.3595 243.952 86.9035 243.973 87.4704C243.85 87.9146 243.633 88.2192 243.321 88.3842C243.057 88.5244 242.789 88.5466 242.519 88.4506C242.273 88.3619 242.084 88.193 241.952 87.944C241.853 87.7572 241.792 87.5105 241.769 87.2037C241.745 86.8969 241.742 86.57 241.757 86.2229C241.788 85.8676 241.823 85.5004 241.861 85.1212C241.907 84.7576 241.946 84.4179 241.978 84.1019C242.028 83.557 242.103 83.0391 242.201 82.5482C242.308 82.0729 242.424 81.6328 242.548 81.228L242.058 81.4878C241.544 81.7601 241.007 82.0251 240.446 82.2827C239.908 82.5476 239.364 82.8364 238.812 83.149ZM246.016 79.4197C245.968 79.4051 245.944 79.3978 245.944 79.3978C245.936 79.3822 245.972 79.4129 246.053 79.4897C246.328 79.7826 246.644 80.1533 247.001 80.6019C247.382 81.0577 247.79 81.4696 248.224 81.8375C248.674 82.1971 249.149 82.4537 249.649 82.6073C250.173 82.7682 250.723 82.696 251.299 82.3907C251.766 82.1432 252.082 81.8559 252.248 81.5289C252.421 81.2175 252.5 80.8768 252.483 80.5068C252.49 80.1442 252.43 79.7674 252.303 79.3764C252.191 78.9772 252.079 78.578 251.967 78.1788C251.906 77.9517 251.826 77.7054 251.725 77.4399C251.639 77.1661 251.551 76.9436 251.461 76.7724C251.428 76.7102 251.302 76.7171 251.083 76.7933C250.88 76.8611 250.642 76.9574 250.369 77.0821C250.104 77.2224 249.84 77.3626 249.575 77.5029C249.326 77.6349 249.139 77.7339 249.015 77.7999C248.439 78.1052 247.894 78.3939 247.381 78.6662C246.875 78.954 246.42 79.2052 246.016 79.4197Z" fill="black"/>
<path d="M242.032 56.9673C242.069 56.9251 242.125 56.8813 242.2 56.8361C242.487 56.6642 242.768 56.6192 243.043 56.701C243.333 56.7738 243.542 56.916 243.668 57.1276C243.786 57.3241 243.843 57.5568 243.84 57.8256C243.836 58.0945 243.717 58.3406 243.481 58.5639C242.655 59.3455 241.862 60.1286 241.1 60.9132C240.362 61.704 239.595 62.5324 238.8 63.3986C238.416 63.7517 238.006 64.1304 237.57 64.5348C237.135 64.9391 236.709 65.3586 236.291 65.7932C235.889 66.2187 235.515 66.6579 235.171 67.1107C234.841 67.5544 234.585 67.9846 234.403 68.4013C234.376 68.6641 234.439 68.924 234.593 69.1809C235.009 69.8762 235.572 70.3193 236.282 70.5104C236.992 70.7014 237.726 70.7445 238.484 70.6395C239.257 70.5255 240.004 70.3148 240.723 70.0074C241.451 69.7151 242.042 69.4333 242.496 69.1619L244.468 67.9812C244.967 67.6826 245.457 67.3689 245.937 67.0401C246.433 66.7023 246.935 66.3917 247.443 66.1082C247.742 65.9907 248.017 65.9698 248.267 66.0456C248.542 66.1275 248.743 66.2742 248.87 66.4858C248.987 66.6823 249.028 66.9043 248.991 67.152C248.979 67.4058 248.849 67.6685 248.601 67.9401C247.891 68.3653 247.197 68.8011 246.52 69.2475C245.867 69.7 245.192 70.1343 244.497 70.5505C243.696 71.03 242.806 71.4807 241.827 71.9027C240.857 72.3397 239.859 72.6287 238.835 72.7696C237.826 72.9015 236.822 72.8356 235.822 72.5717C234.847 72.3139 233.953 71.73 233.141 70.8198C233.072 70.7382 233.005 70.6445 232.942 70.5387C232.888 70.448 232.829 70.3498 232.766 70.244C232.431 69.6847 232.259 69.1408 232.251 68.6121C232.257 68.0744 232.376 67.5519 232.606 67.0446C232.836 66.5373 233.146 66.0437 233.536 65.5638C233.927 65.0839 234.345 64.6176 234.793 64.1649C235.25 63.7273 235.7 63.3139 236.145 62.9246C236.604 62.5264 237.014 62.1476 237.374 61.7885C238.145 61.019 238.909 60.2026 239.665 59.3394C240.43 58.4913 241.219 57.7006 242.032 56.9673Z" fill="black"/>
<path d="M235.366 47.2215C235.472 47.3398 235.559 47.4633 235.626 47.5919C235.8 47.6018 235.987 47.7184 236.186 47.9418C236.468 48.2573 236.554 48.6053 236.445 48.9858L236.125 50.0156C236.089 50.6373 235.948 51.2469 235.702 51.8442C235.481 52.4429 235.199 53.0133 234.857 53.5552C234.514 54.0971 234.136 54.5996 233.723 55.0627C233.31 55.5257 232.906 55.9332 232.512 56.285C231.842 56.8832 231.057 57.4062 230.158 57.8541C229.259 58.302 228.286 58.5336 227.237 58.5488C226.21 58.6152 225.389 58.5809 224.772 58.4461C224.169 58.2995 223.628 57.9568 223.147 57.418C222.947 57.1945 222.716 56.8819 222.451 56.4802C222.199 56.0915 221.994 55.637 221.837 55.1165C221.691 54.6092 221.641 54.0512 221.688 53.4426C221.736 52.8339 221.971 52.211 222.394 51.5739C222.736 51.032 223.049 50.5757 223.332 50.205C223.64 49.8358 223.972 49.4928 224.326 49.1762C224.957 48.6132 225.622 48.1146 226.32 47.6802C227.044 47.2472 227.756 46.8948 228.458 46.6228C229.172 46.3391 229.863 46.1475 230.53 46.0482C231.209 45.9621 231.825 45.9784 232.38 46.0973C233.267 46.2974 234.262 46.6722 235.366 47.2215ZM234.196 49.0451L233.526 48.6514C233.079 48.3889 232.595 48.2429 232.073 48.2132C231.563 48.1717 231.05 48.2049 230.532 48.3127C230.015 48.4205 229.507 48.5788 229.008 48.7875C228.523 48.9844 228.074 49.1959 227.662 49.422C227.25 49.6481 226.895 49.8587 226.597 50.0539C226.311 50.2621 226.115 50.4132 226.01 50.507C225.09 51.328 224.366 52.4346 223.837 53.8268C223.85 54.2642 223.915 54.6546 224.033 54.9981C224.162 55.3548 224.409 55.7369 224.772 56.1443C224.796 56.1706 224.844 56.1983 224.917 56.2274L225.062 56.3105C225.099 56.3251 225.135 56.3396 225.172 56.3542C225.209 56.3687 225.252 56.3774 225.302 56.3803L225.747 56.443C225.807 56.4839 225.882 56.4881 225.971 56.4558C226.445 56.4578 226.895 56.4335 227.323 56.3829C227.761 56.3455 228.19 56.2576 228.61 56.1193C229.054 55.9824 229.483 55.7884 229.897 55.5375C230.335 55.288 230.785 54.9579 231.245 54.5474C231.849 54.0079 232.371 53.3889 232.81 52.6902C233.274 51.993 233.627 51.2646 233.87 50.5049C233.96 50.0234 234.009 49.7081 234.017 49.5589C234.05 49.411 234.102 49.2705 234.172 49.1373L234.196 49.0451Z" fill="black"/>
<path d="M215.782 39.6639C215.924 39.5846 216.033 39.5347 216.109 39.514L217.349 35.1494C217.565 34.4132 217.819 33.6791 218.11 32.9471C218.413 32.2282 218.783 31.5319 219.221 30.8582L219.359 30.735C219.582 30.5356 219.838 30.4254 220.126 30.4044C220.439 30.3847 220.713 30.5064 220.948 30.7692C221.17 31.0189 221.231 31.3779 221.13 31.8463C220.44 33.0047 219.892 34.2024 219.484 35.4393C219.09 36.6645 218.755 37.8368 218.48 38.9565C218.917 38.9439 219.417 38.9349 219.978 38.9294C220.54 38.9239 221.14 38.8957 221.78 38.8447C222.419 38.7937 223.078 38.7127 223.758 38.6017C224.463 38.4921 225.166 38.3137 225.866 38.0666C226.166 38.0587 226.413 38.0977 226.608 38.1836C226.816 38.2578 226.984 38.3672 227.113 38.5118C227.324 38.7483 227.397 39.002 227.332 39.2728C227.267 39.5435 227.103 39.7962 226.84 40.0307C225.588 40.5335 224.324 40.8358 223.045 40.9378C221.792 41.0411 220.529 41.0941 219.256 41.0966C219.057 41.0852 218.764 41.0873 218.376 41.1027C218.014 41.1195 217.671 41.1187 217.347 41.1003L217.246 41.2255C216.865 41.5657 216.535 41.8837 216.257 42.1798C215.978 42.4758 215.713 42.7477 215.462 42.9954C215.235 43.2445 215.003 43.4871 214.765 43.7231C214.552 43.9605 214.321 44.1906 214.071 44.4134C213.9 44.5659 213.69 44.7535 213.44 44.9764C213.19 45.1992 212.976 45.3554 212.796 45.445L212.544 45.5991C212.275 45.721 212.023 45.7566 211.789 45.7059C211.555 45.6551 211.374 45.5575 211.245 45.4129C211.08 45.2289 210.993 45.0119 210.982 44.7617C210.983 44.5247 211.04 44.2972 211.152 44.079L211.312 43.9009C211.575 43.6664 211.811 43.4677 212.019 43.3049C212.228 43.1421 212.438 42.9669 212.648 42.7793C212.911 42.5447 213.149 42.3087 213.362 42.0713C213.6 41.8353 213.832 41.5928 214.058 41.3437C214.296 41.1077 214.548 40.8475 214.814 40.5632C215.091 40.2921 215.414 39.9923 215.782 39.6639Z" fill="black"/>
</svg>
